<svg width="24" height="25" viewBox="0 0 24 25" fill="none" xmlns="http://www.w3.org/2000/svg">
<path d="M20 11.0099C19.7348 11.0099 19.4804 11.1152 19.2929 11.3028C19.1054 11.4903 19 11.7447 19 12.0099V18.0099C19 18.2751 18.8946 18.5295 18.7071 18.717C18.5196 18.9045 18.2652 19.0099 18 19.0099H6C5.73478 19.0099 5.48043 18.9045 5.29289 18.717C5.10536 18.5295 5 18.2751 5 18.0099V6.00989C5 5.74467 5.10536 5.49032 5.29289 5.30278C5.48043 5.11524 5.73478 5.00989 6 5.00989H12C12.2652 5.00989 12.5196 4.90453 12.7071 4.71699C12.8946 4.52946 13 4.2751 13 4.00989C13 3.74467 12.8946 3.49032 12.7071 3.30278C12.5196 3.11524 12.2652 3.00989 12 3.00989H6C5.20435 3.00989 4.44129 3.32596 3.87868 3.88857C3.31607 4.45118 3 5.21424 3 6.00989V18.0099C3 18.8055 3.31607 19.5686 3.87868 20.1312C4.44129 20.6938 5.20435 21.0099 6 21.0099H18C18.7956 21.0099 19.5587 20.6938 20.1213 20.1312C20.6839 19.5686 21 18.8055 21 18.0099V12.0099C21 11.7447 20.8946 11.4903 20.7071 11.3028C20.5196 11.1152 20.2652 11.0099 20 11.0099Z" fill="#212B36"/>
<path d="M16 5.00989H17.58L11.29 11.2899C11.1963 11.3829 11.1219 11.4935 11.0711 11.6153C11.0203 11.7372 10.9942 11.8679 10.9942 11.9999C10.9942 12.1319 11.0203 12.2626 11.0711 12.3845C11.1219 12.5063 11.1963 12.6169 11.29 12.7099C11.383 12.8036 11.4936 12.878 11.6154 12.9288C11.7373 12.9795 11.868 13.0057 12 13.0057C12.132 13.0057 12.2627 12.9795 12.3846 12.9288C12.5064 12.878 12.617 12.8036 12.71 12.7099L19 6.42989V8.00989C19 8.2751 19.1054 8.52946 19.2929 8.71699C19.4804 8.90453 19.7348 9.00989 20 9.00989C20.2652 9.00989 20.5196 8.90453 20.7071 8.71699C20.8946 8.52946 21 8.2751 21 8.00989V4.00989C21 3.74467 20.8946 3.49032 20.7071 3.30278C20.5196 3.11524 20.2652 3.00989 20 3.00989H16C15.7348 3.00989 15.4804 3.11524 15.2929 3.30278C15.1054 3.49032 15 3.74467 15 4.00989C15 4.2751 15.1054 4.52946 15.2929 4.71699C15.4804 4.90453 15.7348 5.00989 16 5.00989Z" fill="#212B36"/>
</svg>
