<svg width="24" height="25" viewBox="0 0 24 25" fill="none" xmlns="http://www.w3.org/2000/svg">
<path d="M8.00032 12.0099C8.00032 12.5622 8.44803 13.0099 9.00032 13.0099H15.0003C15.5526 13.0099 16.0003 12.5622 16.0003 12.0099C16.0003 11.4576 15.5526 11.0099 15.0003 11.0099H9.00032C8.44803 11.0099 8.00032 11.4576 8.00032 12.0099Z" fill="#212B36"/>
<path d="M9.00032 16.0099H7.21032C5.08082 16.0667 3.25746 14.4946 3.00032 12.3799C2.89595 11.2565 3.27083 10.1413 4.03259 9.30909C4.79434 8.47687 5.87212 8.00504 7.00032 8.00988H9.00032C9.5526 8.00988 10.0003 7.56217 10.0003 7.00988C10.0003 6.4576 9.5526 6.00988 9.00032 6.00988H7.21032C4.1456 5.96893 1.51852 8.19086 1.05032 11.2199C0.822611 12.9343 1.34572 14.6635 2.48551 15.9642C3.62529 17.2649 5.27089 18.0105 7.00032 18.0099H9.00032C9.5526 18.0099 10.0003 17.5622 10.0003 17.0099C10.0003 16.4576 9.5526 16.0099 9.00032 16.0099Z" fill="#212B36"/>
<path d="M23.0003 11.2499C22.5376 8.18051 19.8635 5.93489 16.7603 6.00988H15.2503C14.4403 6.00988 14.0003 6.45988 14.0003 7.00988C14.0003 7.56217 14.448 8.00988 15.0003 8.00988H16.7903C18.9198 7.95304 20.7432 9.5252 21.0003 11.6399C21.1047 12.7633 20.7298 13.8785 19.9681 14.7107C19.2063 15.5429 18.1285 16.0147 17.0003 16.0099H15.0003C14.448 16.0099 14.0003 16.4576 14.0003 17.0099C14.0003 17.5622 14.448 18.0099 15.0003 18.0099H17.0003C18.7325 18.0238 20.3862 17.2885 21.5361 15.993C22.6859 14.6974 23.2198 12.9682 23.0003 11.2499Z" fill="#212B36"/>
</svg>
