<svg width="24" height="25" viewBox="0 0 24 25" fill="none" xmlns="http://www.w3.org/2000/svg">
<path d="M17.9998 3.00989H5.99982C5.3958 3.01346 4.80694 3.19928 4.31027 3.54304C3.8136 3.88679 3.43227 4.37246 3.21616 4.93649C3.00005 5.50053 2.95924 6.11667 3.09906 6.70429C3.23889 7.29191 3.55283 7.82363 3.99982 8.22989V18.0099C3.99982 18.8055 4.31589 19.5686 4.8785 20.1312C5.44111 20.6938 6.20417 21.0099 6.99982 21.0099H16.9998C17.7955 21.0099 18.5585 20.6938 19.1211 20.1312C19.6837 19.5686 19.9998 18.8055 19.9998 18.0099V8.22989C20.4468 7.82363 20.7607 7.29191 20.9006 6.70429C21.0404 6.11667 20.9996 5.50053 20.7835 4.93649C20.5674 4.37246 20.186 3.88679 19.6894 3.54304C19.1927 3.19928 18.6038 3.01346 17.9998 3.00989ZM14.9998 13.1399C14.9998 13.3706 14.9082 13.5919 14.745 13.7551C14.5818 13.9182 14.3606 14.0099 14.1298 14.0099H9.86982C9.63908 14.0099 9.41779 13.9182 9.25463 13.7551C9.09148 13.5919 8.99982 13.3706 8.99982 13.1399V12.8799C8.99982 12.6491 9.09148 12.4279 9.25463 12.2647C9.41779 12.1015 9.63908 12.0099 9.86982 12.0099H14.1298C14.3606 12.0099 14.5818 12.1015 14.745 12.2647C14.9082 12.4279 14.9998 12.6491 14.9998 12.8799V13.1399ZM17.9998 7.00989H5.99982C5.7346 7.00989 5.48025 6.90453 5.29271 6.71699C5.10517 6.52946 4.99982 6.2751 4.99982 6.00989C4.99982 5.74467 5.10517 5.49032 5.29271 5.30278C5.48025 5.11524 5.7346 5.00989 5.99982 5.00989H17.9998C18.265 5.00989 18.5194 5.11524 18.7069 5.30278C18.8945 5.49032 18.9998 5.74467 18.9998 6.00989C18.9998 6.2751 18.8945 6.52946 18.7069 6.71699C18.5194 6.90453 18.265 7.00989 17.9998 7.00989Z" fill="#212B36"/>
</svg>
