<svg width="24" height="25" viewBox="0 0 24 25" fill="none" xmlns="http://www.w3.org/2000/svg">
<path fill-rule="evenodd" clip-rule="evenodd" d="M21.02 5.00989H19V2.98989C19 2.44989 18.56 2.00989 18.02 2.00989H17.99C17.44 2.00989 17 2.44989 17 2.98989V5.00989H14.99C14.45 5.00989 14.01 5.44989 14 5.98989V6.01989C14 6.56989 14.44 7.00989 14.99 7.00989H17V9.01989C17 9.55989 17.44 10.0099 17.99 9.99989H18.02C18.56 9.99989 19 9.55989 19 9.01989V7.00989H21.02C21.56 7.00989 22 6.56989 22 6.02989V5.98989C22 5.44989 21.56 5.00989 21.02 5.00989ZM16 9.01989V8.00989H14.99C14.46 8.00989 13.96 7.79989 13.58 7.42989C13.21 7.04989 13 6.54989 13 5.98989C13 5.62989 13.1 5.29989 13.27 5.00989H5C3.9 5.00989 3 5.90989 3 7.00989V19.0099C3 20.1099 3.9 21.0099 5 21.0099H17C18.1 21.0099 19 20.1099 19 19.0099V10.7299C18.7 10.8999 18.36 11.0099 17.98 11.0099C16.89 10.9999 16 10.1099 16 9.01989ZM6 19.0099H15.96C16.38 19.0099 16.61 18.5299 16.35 18.1999L13.4 14.5199C13.2 14.2599 12.81 14.2699 12.61 14.5299L10 18.0099L8.4 15.5999C8.2 15.3199 7.79 15.2999 7.58 15.5799L5.6 18.2099C5.35 18.5399 5.59 19.0099 6 19.0099Z" fill="#212B36"/>
</svg>
