<svg width="24" height="25" viewBox="0 0 24 25" fill="none" xmlns="http://www.w3.org/2000/svg">
<path fill-rule="evenodd" clip-rule="evenodd" d="M22 4.00989H14L12.59 2.59989C12.21 2.21989 11.7 2.00989 11.17 2.00989H6C4.9 2.00989 4.01 2.90989 4.01 4.00989L4 16.0099C4 17.1099 4.9 18.0099 6 18.0099H22C23.1 18.0099 24 17.1099 24 16.0099V6.00989C24 4.90989 23.1 4.00989 22 4.00989ZM1 6.00989C0.45 6.00989 0 6.45989 0 7.00989V11.0099H0.01L0 20.0099C0 21.1099 0.9 22.0099 2 22.0099H19C19.55 22.0099 20 21.5599 20 21.0099C20 20.4599 19.55 20.0099 19 20.0099H3C2.45 20.0099 2 19.5599 2 19.0099V7.00989C2 6.45989 1.55 6.00989 1 6.00989ZM11.1098 9.52991L7.59982 14.2099C7.34982 14.5399 7.58982 15.0099 7.99982 14.9999H19.9898C20.3998 14.9999 20.6398 14.5199 20.3798 14.1899L17.8898 10.9899C17.6898 10.7399 17.3098 10.7299 17.1098 10.9799L15.0098 13.5099L11.9098 9.51991C11.6998 9.25991 11.3098 9.26991 11.1098 9.52991Z" fill="#212B36"/>
</svg>
