<svg width="24" height="25" viewBox="0 0 24 25" fill="none" xmlns="http://www.w3.org/2000/svg">
<path d="M13 11.0099H16C16.2652 11.0099 16.5196 11.1152 16.7071 11.3028C16.8946 11.4903 17 11.7447 17 12.0099C17 12.2751 16.8946 12.5295 16.7071 12.717C16.5196 12.9045 16.2652 13.0099 16 13.0099H12C11.7348 13.0099 11.4804 12.9045 11.2929 12.717C11.1054 12.5295 11 12.2751 11 12.0099V8.00989C11 7.74467 11.1054 7.49032 11.2929 7.30278C11.4804 7.11524 11.7348 7.00989 12 7.00989C12.2652 7.00989 12.5196 7.11524 12.7071 7.30278C12.8946 7.49032 13 7.74467 13 8.00989V11.0099Z" fill="#212B36"/>
<path fill-rule="evenodd" clip-rule="evenodd" d="M6.4443 3.69519C8.08879 2.59638 10.0222 2.00989 12 2.00989C13.3132 2.00989 14.6136 2.26855 15.8268 2.77109C17.0401 3.27364 18.1425 4.01023 19.0711 4.93882C19.9997 5.86741 20.7363 6.9698 21.2388 8.18305C21.7413 9.39631 22 10.6967 22 12.0099C22 13.9877 21.4135 15.9211 20.3147 17.5656C19.2159 19.2101 17.6541 20.4918 15.8268 21.2487C13.9996 22.0056 11.9889 22.2036 10.0491 21.8177C8.10929 21.4319 6.32746 20.4795 4.92894 19.081C3.53041 17.6824 2.578 15.9006 2.19215 13.9608C1.8063 12.021 2.00433 10.0103 2.76121 8.18305C3.51809 6.35579 4.79981 4.79401 6.4443 3.69519ZM7.55544 18.6616C8.87104 19.5407 10.4178 20.0099 12 20.0099C14.1217 20.0099 16.1566 19.167 17.6569 17.6667C19.1572 16.1665 20 14.1316 20 12.0099C20 10.4276 19.5308 8.88092 18.6518 7.56533C17.7727 6.24973 16.5233 5.22435 15.0615 4.61885C13.5997 4.01335 11.9911 3.85492 10.4393 4.16361C8.88743 4.47229 7.46197 5.23421 6.34315 6.35303C5.22433 7.47185 4.4624 8.89732 4.15372 10.4492C3.84504 12.001 4.00347 13.6095 4.60897 15.0714C5.21447 16.5332 6.23985 17.7826 7.55544 18.6616Z" fill="#212B36"/>
</svg>
