<svg width="24" height="25" viewBox="0 0 24 25" fill="none" xmlns="http://www.w3.org/2000/svg">
<path fill-rule="evenodd" clip-rule="evenodd" d="M2 12.0099C2 6.48704 6.47715 2.00989 12 2.00989C14.6522 2.00989 17.1957 3.06346 19.0711 4.93882C20.9464 6.81418 22 9.35772 22 12.0099C22 17.5327 17.5228 22.0099 12 22.0099C6.47715 22.0099 2 17.5327 2 12.0099ZM11.73 15.6199L16.3 9.61989V9.58989C16.5179 9.30408 16.5668 8.92371 16.4283 8.59207C16.2897 8.26043 15.9848 8.0279 15.6283 7.98207C15.2718 7.93624 14.9179 8.08408 14.7 8.36989L10.92 13.3699L9.29 11.2899C9.07028 11.0076 8.71668 10.8641 8.36239 10.9132C8.00811 10.9624 7.70696 11.1968 7.57239 11.5282C7.43783 11.8596 7.49028 12.2376 7.71 12.5199L10.15 15.6299C10.3408 15.8714 10.6322 16.0115 10.94 16.0099C11.2495 16.0091 11.5412 15.8651 11.73 15.6199Z" fill="#212B36"/>
</svg>
