<svg width="24" height="25" viewBox="0 0 24 25" fill="none" xmlns="http://www.w3.org/2000/svg">
<path fill-rule="evenodd" clip-rule="evenodd" d="M2 12.0099C2 6.48704 6.47715 2.00989 12 2.00989C14.6522 2.00989 17.1957 3.06346 19.0711 4.93882C20.9464 6.81418 22 9.35772 22 12.0099C22 17.5327 17.5228 22.0099 12 22.0099C6.47715 22.0099 2 17.5327 2 12.0099ZM12 13.0099H16C16.5523 13.0099 17 12.5622 17 12.0099C17 11.4576 16.5523 11.0099 16 11.0099H13V8.00989C13 7.4576 12.5523 7.00989 12 7.00989C11.4477 7.00989 11 7.4576 11 8.00989V12.0099C11 12.5622 11.4477 13.0099 12 13.0099Z" fill="#212B36"/>
</svg>
