<svg width="24" height="25" viewBox="0 0 24 25" fill="none" xmlns="http://www.w3.org/2000/svg">
<path d="M18 4.00989H17V3.00989C17 2.74467 16.8946 2.49032 16.7071 2.30278C16.5196 2.11524 16.2652 2.00989 16 2.00989C15.7348 2.00989 15.4804 2.11524 15.2929 2.30278C15.1054 2.49032 15 2.74467 15 3.00989V4.00989H9V3.00989C9 2.74467 8.89464 2.49032 8.70711 2.30278C8.51957 2.11524 8.26522 2.00989 8 2.00989C7.73478 2.00989 7.48043 2.11524 7.29289 2.30278C7.10536 2.49032 7 2.74467 7 3.00989V4.00989H6C5.20435 4.00989 4.44129 4.32596 3.87868 4.88857C3.31607 5.45118 3 6.21424 3 7.00989V19.0099C3 19.8055 3.31607 20.5686 3.87868 21.1312C4.44129 21.6938 5.20435 22.0099 6 22.0099H18C18.7956 22.0099 19.5587 21.6938 20.1213 21.1312C20.6839 20.5686 21 19.8055 21 19.0099V7.00989C21 6.21424 20.6839 5.45118 20.1213 4.88857C19.5587 4.32596 18.7956 4.00989 18 4.00989V4.00989ZM8 17.0099C7.80222 17.0099 7.60888 16.9512 7.44443 16.8414C7.27998 16.7315 7.15181 16.5753 7.07612 16.3926C7.00043 16.2098 6.98063 16.0088 7.01921 15.8148C7.0578 15.6208 7.15304 15.4426 7.29289 15.3028C7.43275 15.1629 7.61093 15.0677 7.80491 15.0291C7.99889 14.9905 8.19996 15.0103 8.38268 15.086C8.56541 15.1617 8.72159 15.2899 8.83147 15.4543C8.94135 15.6188 9 15.8121 9 16.0099C9 16.2751 8.89464 16.5295 8.70711 16.717C8.51957 16.9045 8.26522 17.0099 8 17.0099V17.0099ZM16 17.0099H12C11.7348 17.0099 11.4804 16.9045 11.2929 16.717C11.1054 16.5295 11 16.2751 11 16.0099C11 15.7447 11.1054 15.4903 11.2929 15.3028C11.4804 15.1152 11.7348 15.0099 12 15.0099H16C16.2652 15.0099 16.5196 15.1152 16.7071 15.3028C16.8946 15.4903 17 15.7447 17 16.0099C17 16.2751 16.8946 16.5295 16.7071 16.717C16.5196 16.9045 16.2652 17.0099 16 17.0099ZM19 11.0099H5V7.00989C5 6.74467 5.10536 6.49032 5.29289 6.30278C5.48043 6.11524 5.73478 6.00989 6 6.00989H7V7.00989C7 7.2751 7.10536 7.52946 7.29289 7.71699C7.48043 7.90453 7.73478 8.00989 8 8.00989C8.26522 8.00989 8.51957 7.90453 8.70711 7.71699C8.89464 7.52946 9 7.2751 9 7.00989V6.00989H15V7.00989C15 7.2751 15.1054 7.52946 15.2929 7.71699C15.4804 7.90453 15.7348 8.00989 16 8.00989C16.2652 8.00989 16.5196 7.90453 16.7071 7.71699C16.8946 7.52946 17 7.2751 17 7.00989V6.00989H18C18.2652 6.00989 18.5196 6.11524 18.7071 6.30278C18.8946 6.49032 19 6.74467 19 7.00989V11.0099Z" fill="#212B36"/>
</svg>
