<svg width="24" height="25" viewBox="0 0 24 25" fill="none" xmlns="http://www.w3.org/2000/svg">
<path fill-rule="evenodd" clip-rule="evenodd" d="M7 2.00989C4.23858 2.00989 2 4.24846 2 7.00989V17.0099C2 19.7713 4.23858 22.0099 7 22.0099H17C19.7614 22.0099 22 19.7713 22 17.0099V7.00989C22 4.24846 19.7614 2.00989 17 2.00989H7ZM7.5 3.50989C5.29086 3.50989 3.5 5.30075 3.5 7.50989V16.5099C3.5 18.719 5.29086 20.5099 7.5 20.5099H16.5C18.7091 20.5099 20.5 18.719 20.5 16.5099V7.50989C20.5 5.30075 18.7091 3.50989 16.5 3.50989H7.5Z" fill="#212B36"/>
</svg>
