<svg width="25" height="25" viewBox="0 0 25 25" fill="none" xmlns="http://www.w3.org/2000/svg">
<path d="M13.4097 11.9991L17.7062 7.71268C18.098 7.32088 18.098 6.68565 17.7062 6.29385C17.3144 5.90205 16.6791 5.90205 16.2873 6.29385L12.0009 10.5903L7.71439 6.29385C7.32259 5.90205 6.68735 5.90205 6.29555 6.29385C5.90376 6.68565 5.90376 7.32088 6.29555 7.71268L10.592 11.9991L6.29555 16.2856C6.1064 16.4732 6 16.7286 6 16.995C6 17.2614 6.1064 17.5168 6.29555 17.7044C6.48317 17.8936 6.73855 18 7.00497 18C7.27139 18 7.52677 17.8936 7.71439 17.7044L12.0009 13.408L16.2873 17.7044C16.4749 17.8936 16.7303 18 16.9967 18C17.2632 18 17.5185 17.8936 17.7062 17.7044C17.8953 17.5168 18.0017 17.2614 18.0017 16.995C18.0017 16.7286 17.8953 16.4732 17.7062 16.2856L13.4097 11.9991Z" fill="#212B36"/>
</svg>
