<svg width="24" height="25" viewBox="0 0 24 25" fill="none" xmlns="http://www.w3.org/2000/svg">
<path d="M19.4003 7.34988L16.6603 4.60988C16.3118 4.25686 15.8403 4.05241 15.3444 4.03936C14.8485 4.02631 14.3669 4.20568 14.0003 4.53988L12.0003 6.53988L10.7103 5.29988C10.6171 5.20664 10.5064 5.13268 10.3845 5.08222C10.2627 5.03176 10.1322 5.00579 10.0003 5.00579C9.73399 5.00579 9.4786 5.11158 9.2903 5.29988C9.19706 5.39312 9.1231 5.50381 9.07264 5.62563C9.02218 5.74745 8.99621 5.87802 8.99621 6.00988C8.99621 6.27618 9.10199 6.53158 9.2903 6.71988L10.5303 8.00988L5.0003 13.5399C4.67706 13.8658 4.4758 14.2931 4.4303 14.7499L4.0003 18.9199C3.98683 19.0663 4.00583 19.214 4.05596 19.3523C4.10608 19.4905 4.1861 19.6161 4.2903 19.7199C4.38374 19.8126 4.49455 19.8859 4.61639 19.9357C4.73823 19.9854 4.86869 20.0106 5.0003 20.0099H5.0903L9.2603 19.6299C9.71709 19.5844 10.1443 19.3831 10.4703 19.0599L16.0503 13.4799L17.2903 14.7199C17.3833 14.8136 17.4939 14.888 17.6157 14.9388C17.7376 14.9895 17.8683 15.0157 18.0003 15.0157C18.1323 15.0157 18.263 14.9895 18.3849 14.9388C18.5067 14.888 18.6173 14.8136 18.7103 14.7199C18.804 14.6269 18.8784 14.5163 18.9292 14.3945C18.98 14.2726 19.0061 14.1419 19.0061 14.0099C19.0061 13.8779 18.98 13.7472 18.9292 13.6253C18.8784 13.5034 18.804 13.3928 18.7103 13.2999L17.4703 12.0599L19.4703 10.0599C19.8196 9.69085 20.0084 9.19839 19.9953 8.69042C19.9822 8.18244 19.7682 7.70039 19.4003 7.34988V7.34988ZM6.4003 14.9499L12.0003 9.36988L14.6903 12.0699L11.9003 14.8599" fill="#212B36"/>
</svg>
