<svg width="24" height="25" viewBox="0 0 24 25" fill="none" xmlns="http://www.w3.org/2000/svg">
<path fill-rule="evenodd" clip-rule="evenodd" d="M5.08824 2.50989H19.5C21.2056 2.50989 22.5882 3.89254 22.5882 5.59812V15.8922C22.5882 17.5978 21.2056 18.9805 19.5 18.9805H8.74265C8.54396 18.9728 8.34732 19.0229 8.17647 19.1246L3.55441 21.9246C3.39552 22.0189 3.21417 22.0687 3.02941 22.0687C2.85257 22.0682 2.67885 22.0221 2.525 21.9349C2.20126 21.7529 2.00064 21.4107 2 21.0393V5.59812C2 3.89254 3.38265 2.50989 5.08824 2.50989ZM7.14706 10.7452C7.14706 11.3137 7.60794 11.7746 8.17647 11.7746C8.745 11.7746 9.20588 11.3137 9.20588 10.7452C9.20588 10.1767 8.745 9.71577 8.17647 9.71577C7.60794 9.71577 7.14706 10.1767 7.14706 10.7452ZM12.2941 11.7746C11.7256 11.7746 11.2647 11.3137 11.2647 10.7452C11.2647 10.1767 11.7256 9.71577 12.2941 9.71577C12.8626 9.71577 13.3235 10.1767 13.3235 10.7452C13.3235 11.3137 12.8626 11.7746 12.2941 11.7746ZM15.3824 10.7452C15.3824 11.3137 15.8432 11.7746 16.4118 11.7746C16.9803 11.7746 17.4412 11.3137 17.4412 10.7452C17.4412 10.1767 16.9803 9.71577 16.4118 9.71577C15.8432 9.71577 15.3824 10.1767 15.3824 10.7452Z" fill="#212B36"/>
</svg>
