<svg width="24" height="25" viewBox="0 0 24 25" fill="none" xmlns="http://www.w3.org/2000/svg">
<path d="M12 2.00989C10.0222 2.00989 8.08879 2.59638 6.4443 3.69519C4.79981 4.79401 3.51809 6.35579 2.76121 8.18305C2.00433 10.0103 1.8063 12.021 2.19215 13.9608C2.578 15.9006 3.53041 17.6824 4.92894 19.081C6.32746 20.4795 8.10929 21.4319 10.0491 21.8177C11.9889 22.2036 13.9996 22.0056 15.8268 21.2487C17.6541 20.4918 19.2159 19.2101 20.3147 17.5656C21.4135 15.9211 22 13.9877 22 12.0099C22 10.6967 21.7413 9.39631 21.2388 8.18305C20.7363 6.9698 19.9997 5.86741 19.0711 4.93882C18.1425 4.01023 17.0401 3.27364 15.8268 2.77109C14.6136 2.26855 13.3132 2.00989 12 2.00989ZM12 20.0099C10.4178 20.0099 8.87104 19.5407 7.55544 18.6616C6.23985 17.7826 5.21447 16.5332 4.60897 15.0714C4.00347 13.6095 3.84504 12.001 4.15372 10.4492C4.4624 8.89732 5.22433 7.47185 6.34315 6.35303C7.46197 5.23421 8.88743 4.47229 10.4393 4.16361C11.9911 3.85492 13.5997 4.01335 15.0615 4.61885C16.5233 5.22435 17.7727 6.24973 18.6518 7.56533C19.5308 8.88092 20 10.4276 20 12.0099C20 14.1316 19.1572 16.1665 17.6569 17.6667C16.1566 19.167 14.1217 20.0099 12 20.0099Z" fill="#212B36"/>
<path d="M14.7 8.39989L10.92 13.3999L9.29 11.2899C9.1269 11.0804 8.88724 10.9442 8.62375 10.9114C8.36026 10.8786 8.09453 10.9518 7.885 11.1149C7.67548 11.278 7.53934 11.5177 7.50652 11.7811C7.4737 12.0446 7.5469 12.3104 7.71 12.5199L10.14 15.6299C10.2342 15.7491 10.3543 15.8452 10.4911 15.9111C10.628 15.9769 10.7781 16.0107 10.93 16.0099C11.0827 16.0095 11.2333 15.9742 11.3703 15.9066C11.5072 15.839 11.6268 15.7409 11.72 15.6199L16.29 9.61989C16.4518 9.40771 16.5227 9.13996 16.487 8.87554C16.4514 8.61111 16.3122 8.37167 16.1 8.20989C15.8878 8.04811 15.6201 7.97724 15.3557 8.01287C15.0912 8.0485 14.8518 8.18771 14.69 8.39989H14.7Z" fill="#212B36"/>
</svg>
