<svg width="24" height="25" viewBox="0 0 24 25" fill="none" xmlns="http://www.w3.org/2000/svg">
<path d="M17.71 6.29989C17.617 6.20616 17.5064 6.13177 17.3846 6.081C17.2627 6.03023 17.132 6.00409 17 6.00409C16.868 6.00409 16.7373 6.03023 16.6154 6.081C16.4936 6.13177 16.383 6.20616 16.29 6.29989L8 14.5999V9.00989C8 8.74467 7.89464 8.49032 7.70711 8.30278C7.51957 8.11524 7.26522 8.00989 7 8.00989C6.73478 8.00989 6.48043 8.11524 6.29289 8.30278C6.10536 8.49032 6 8.74467 6 9.00989V17.0099C6 17.2751 6.10536 17.5295 6.29289 17.717C6.48043 17.9045 6.73478 18.0099 7 18.0099H15C15.2652 18.0099 15.5196 17.9045 15.7071 17.717C15.8946 17.5295 16 17.2751 16 17.0099C16 16.7447 15.8946 16.4903 15.7071 16.3028C15.5196 16.1152 15.2652 16.0099 15 16.0099H9.41L17.71 7.71989C17.8037 7.62692 17.8781 7.51632 17.9289 7.39446C17.9797 7.27261 18.0058 7.1419 18.0058 7.00989C18.0058 6.87788 17.9797 6.74717 17.9289 6.62531C17.8781 6.50345 17.8037 6.39285 17.71 6.29989V6.29989Z" fill="#212B36"/>
</svg>
