<svg width="24" height="25" viewBox="0 0 24 25" fill="none" xmlns="http://www.w3.org/2000/svg">
<path d="M4 19.0099C4 18.4576 4.44772 18.0099 5 18.0099H19C19.5523 18.0099 20 18.4576 20 19.0099C20 19.5622 19.5523 20.0099 19 20.0099H5C4.44772 20.0099 4 19.5622 4 19.0099Z" fill="#212B36"/>
<path d="M5 20.0099C4.44772 20.0099 4 19.5622 4 19.0099V17.0099C4 16.4576 4.44772 16.0099 5 16.0099C5.55228 16.0099 6 16.4576 6 17.0099V19.0099C6 19.5622 5.55228 20.0099 5 20.0099Z" fill="#212B36"/>
<path d="M19 20.0099C18.4477 20.0099 18 19.5622 18 19.0099V17.0099C18 16.4576 18.4477 16.0099 19 16.0099C19.5523 16.0099 20 16.4576 20 17.0099V19.0099C20 19.5622 19.5523 20.0099 19 20.0099Z" fill="#212B36"/>
<path d="M12 15.0099C11.7927 15.0115 11.59 14.9486 11.42 14.8299L7.42 12.0099C6.97119 11.6915 6.86393 11.0703 7.18 10.6199C7.33307 10.4014 7.56708 10.2532 7.82998 10.2081C8.09289 10.1631 8.36291 10.2249 8.58 10.3799L12 12.7699L15.4 10.2099C15.8418 9.87852 16.4686 9.96806 16.8 10.4099C17.1314 10.8517 17.0418 11.4785 16.6 11.8099L12.6 14.8099C12.4269 14.9397 12.2164 15.0099 12 15.0099Z" fill="#212B36"/>
<path d="M12 13.0099C11.4477 13.0099 11 12.5622 11 12.0099V4.00989C11 3.4576 11.4477 3.00989 12 3.00989C12.5523 3.00989 13 3.4576 13 4.00989V12.0099C13 12.5622 12.5523 13.0099 12 13.0099Z" fill="#212B36"/>
</svg>
