<svg width="25" height="25" viewBox="0 0 25 25" fill="none" xmlns="http://www.w3.org/2000/svg">
<path d="M13.5118 12.0099C13.5118 12.8383 12.8402 13.5099 12.0118 13.5099C11.1834 13.5099 10.5118 12.8383 10.5118 12.0099C10.5118 11.1815 11.1834 10.5099 12.0118 10.5099C12.8402 10.5099 13.5118 11.1815 13.5118 12.0099Z" fill="#212B36"/>
<path fill-rule="evenodd" clip-rule="evenodd" d="M11.7418 5.00988C17.7218 4.82988 21.2418 10.3999 21.8818 11.5099C22.0604 11.8193 22.0604 12.2005 21.8818 12.5099C21.0218 14.0099 17.8118 18.8699 12.2818 19.0099H12.0318C6.14179 19.0099 2.77179 13.5999 2.14179 12.5099C1.96315 12.2005 1.96315 11.8193 2.14179 11.5099C3.01179 10.0099 6.21179 5.14988 11.7418 5.00988ZM8.51179 12.0099C8.51179 13.9429 10.0788 15.5099 12.0118 15.5099C13.9448 15.5099 15.5118 13.9429 15.5118 12.0099C15.5118 10.0769 13.9448 8.50988 12.0118 8.50988C10.0788 8.50988 8.51179 10.0769 8.51179 12.0099Z" fill="#212B36"/>
</svg>
