<svg width="24" height="25" viewBox="0 0 24 25" fill="none" xmlns="http://www.w3.org/2000/svg">
<path fill-rule="evenodd" clip-rule="evenodd" d="M17.45 4.66989L20.79 11.3499C20.9293 11.6294 21.0012 11.9376 21 12.2499V18.0099C21 19.6667 19.6569 21.0099 18 21.0099H6.00002C4.34316 21.0099 3.00002 19.6667 3.00002 18.0099V12.2499C2.99879 11.9376 3.07071 11.6294 3.21002 11.3499L6.55002 4.66989C7.05881 3.65074 8.10091 3.00765 9.24002 3.00989H14.76C15.8991 3.00765 16.9412 3.65074 17.45 4.66989ZM9.24002 5.00989C8.85986 5.00725 8.51108 5.22039 8.34002 5.55989L5.62002 11.0099H8.00002C8.5523 11.0099 9.00002 11.4576 9.00002 12.0099V14.0099C9.00002 14.5622 9.44773 15.0099 10 15.0099H14C14.5523 15.0099 15 14.5622 15 14.0099V12.0099C15 11.4576 15.4477 11.0099 16 11.0099H18.38L15.66 5.55989C15.4889 5.22039 15.1402 5.00725 14.76 5.00989H9.24002Z" fill="#212B36"/>
</svg>
