<svg width="24" height="25" viewBox="0 0 24 25" fill="none" xmlns="http://www.w3.org/2000/svg">
<path d="M12 2.00989C10.0222 2.00989 8.08879 2.59638 6.4443 3.69519C4.79981 4.79401 3.51809 6.35579 2.76121 8.18305C2.00433 10.0103 1.8063 12.021 2.19215 13.9608C2.578 15.9006 3.53041 17.6824 4.92894 19.081C6.32746 20.4795 8.10929 21.4319 10.0491 21.8177C11.9889 22.2036 13.9996 22.0056 15.8268 21.2487C17.6541 20.4918 19.2159 19.2101 20.3147 17.5656C21.4135 15.9211 22 13.9877 22 12.0099C22 10.6967 21.7413 9.39631 21.2388 8.18305C20.7363 6.9698 19.9997 5.86741 19.0711 4.93882C18.1425 4.01023 17.0401 3.27364 15.8268 2.77109C14.6136 2.26855 13.3132 2.00989 12 2.00989ZM12 20.0099C10.4178 20.0099 8.87104 19.5407 7.55544 18.6616C6.23985 17.7826 5.21447 16.5332 4.60897 15.0714C4.00347 13.6095 3.84504 12.001 4.15372 10.4492C4.4624 8.89732 5.22433 7.47185 6.34315 6.35303C7.46197 5.23421 8.88743 4.47229 10.4393 4.16361C11.9911 3.85492 13.5997 4.01335 15.0615 4.61885C16.5233 5.22435 17.7727 6.24973 18.6518 7.56533C19.5308 8.88092 20 10.4276 20 12.0099C20 14.1316 19.1572 16.1665 17.6569 17.6667C16.1566 19.167 14.1217 20.0099 12 20.0099Z" fill="black"/>
<path d="M12 9.00989C12.5523 9.00989 13 8.56217 13 8.00989C13 7.4576 12.5523 7.00989 12 7.00989C11.4477 7.00989 11 7.4576 11 8.00989C11 8.56217 11.4477 9.00989 12 9.00989Z" fill="black"/>
<path d="M12 10.0099C11.7348 10.0099 11.4804 10.1152 11.2929 10.3028C11.1054 10.4903 11 10.7447 11 11.0099V16.0099C11 16.2751 11.1054 16.5295 11.2929 16.717C11.4804 16.9045 11.7348 17.0099 12 17.0099C12.2652 17.0099 12.5196 16.9045 12.7071 16.717C12.8946 16.5295 13 16.2751 13 16.0099V11.0099C13 10.7447 12.8946 10.4903 12.7071 10.3028C12.5196 10.1152 12.2652 10.0099 12 10.0099Z" fill="black"/>
</svg>
