<svg width="24" height="25" viewBox="0 0 24 25" fill="none" xmlns="http://www.w3.org/2000/svg">
<path d="M12 19.0099C12 15.1399 15.13 12.0099 19 12.0099C20.08 12.0099 21.09 12.2599 22 12.6899V6.00989C22 4.90989 21.1 4.00989 20 4.00989H4C2.9 4.00989 2 4.90989 2 6.00989V18.0099C2 19.1099 2.9 20.0099 4 20.0099H12.08C12.03 19.6799 12 19.3499 12 19.0099ZM4 6.00989L12 11.0099L20 6.00989V8.00989L12 13.0099L4 8.00989V6.00989ZM17.34 22.0099L13.8 18.4699L15.21 17.0599L17.33 19.1799L21.57 14.9399L23 16.3499L17.34 22.0099Z" fill="#212B36"/>
</svg>
