<svg width="24" height="25" viewBox="0 0 24 25" fill="none" xmlns="http://www.w3.org/2000/svg">
<path d="M12 15.0099C14.2091 15.0099 16 13.219 16 11.0099V6.00989C16 3.80075 14.2091 2.00989 12 2.00989C9.79086 2.00989 8 3.80075 8 6.00989V11.0099C8 13.219 9.79086 15.0099 12 15.0099Z" fill="#212B36"/>
<path d="M19 11.0099C19 10.4576 18.5523 10.0099 18 10.0099C17.4477 10.0099 17 10.4576 17 11.0099C17 13.7713 14.7614 16.0099 12 16.0099C9.23858 16.0099 7 13.7713 7 11.0099C7 10.4576 6.55228 10.0099 6 10.0099C5.44772 10.0099 5 10.4576 5 11.0099C5.00407 14.4865 7.55907 17.4332 11 17.9299V20.0099H8.89C8.39847 20.0099 8 20.4084 8 20.8999V21.1199C8 21.6114 8.39847 22.0099 8.89 22.0099H15.11C15.6015 22.0099 16 21.6114 16 21.1199V20.8999C16 20.4084 15.6015 20.0099 15.11 20.0099H13V17.9299C16.4409 17.4332 18.9959 14.4865 19 11.0099Z" fill="#212B36"/>
</svg>
