<svg width="24" height="25" viewBox="0 0 24 25" fill="none" xmlns="http://www.w3.org/2000/svg">
<path d="M14 12.0099C14 13.1145 13.1046 14.0099 12 14.0099C10.8954 14.0099 10 13.1145 10 12.0099C10 10.9053 10.8954 10.0099 12 10.0099C13.1046 10.0099 14 10.9053 14 12.0099Z" fill="#212B36"/>
<path d="M14 5.00989C14 6.11446 13.1046 7.00989 12 7.00989C10.8954 7.00989 10 6.11446 10 5.00989C10 3.90532 10.8954 3.00989 12 3.00989C13.1046 3.00989 14 3.90532 14 5.00989Z" fill="#212B36"/>
<path d="M14 19.0099C14 20.1145 13.1046 21.0099 12 21.0099C10.8954 21.0099 10 20.1145 10 19.0099C10 17.9053 10.8954 17.0099 12 17.0099C13.1046 17.0099 14 17.9053 14 19.0099Z" fill="#212B36"/>
</svg>
