<svg width="24" height="25" viewBox="0 0 24 25" fill="none" xmlns="http://www.w3.org/2000/svg">
<path fill-rule="evenodd" clip-rule="evenodd" d="M18.7196 13.4099L20.5196 15.2199C20.9819 15.6898 21.1178 16.3909 20.8648 16.9995C20.6117 17.6082 20.0188 18.0062 19.3596 18.0099H15.9996V18.3499C15.9024 20.4636 14.1136 22.1003 11.9996 22.0099C9.88565 22.1003 8.09688 20.4636 7.99963 18.3499V18.0099H4.63963C3.98046 18.0062 3.38757 17.6082 3.13451 16.9995C2.88144 16.3909 3.01739 15.6898 3.47963 15.2199L5.27963 13.4099V8.73988C5.28317 6.80105 6.12147 4.95765 7.58035 3.68064C9.03924 2.40364 10.9774 1.81674 12.8996 2.06988C16.2851 2.58877 18.7691 5.52523 18.7196 8.94988V13.4099ZM11.9996 20.0099C13.003 20.0807 13.8844 19.3492 13.9996 18.3499V18.0099H9.99963V18.3499C10.1148 19.3492 10.9962 20.0807 11.9996 20.0099Z" fill="#212B36"/>
</svg>
