<svg width="24" height="25" viewBox="0 0 24 25" fill="none" xmlns="http://www.w3.org/2000/svg">
<path d="M19.36 7.00989H18V5.00989C18.0217 4.50221 17.8413 4.00664 17.4983 3.63175C17.1553 3.25686 16.6776 3.03324 16.17 3.00989H7.83002C7.32242 3.03324 6.84478 3.25686 6.50175 3.63175C6.15873 4.00664 5.97831 4.50221 6.00002 5.00989V7.00989H4.64002C3.93628 7.01517 3.26331 7.29913 2.7685 7.79956C2.27369 8.3 1.99735 8.97613 2.00002 9.67989V16.3399C1.99735 17.0436 2.27369 17.7198 2.7685 18.2202C3.26331 18.7206 3.93628 19.0046 4.64002 19.0099H5.50002C5.50002 19.5403 5.71073 20.049 6.08581 20.4241C6.46088 20.7992 6.96959 21.0099 7.50002 21.0099H16.5C17.0305 21.0099 17.5392 20.7992 17.9142 20.4241C18.2893 20.049 18.5 19.5403 18.5 19.0099H19.36C20.0638 19.0046 20.7367 18.7206 21.2315 18.2202C21.7264 17.7198 22.0027 17.0436 22 16.3399V9.67989C22.0027 8.97613 21.7264 8.3 21.2315 7.79956C20.7367 7.29913 20.0638 7.01517 19.36 7.00989ZM8.00002 5.00989H16V7.00989H8.00002V5.00989ZM7.50002 19.0099V15.0099H16.5V19.0099H7.50002Z" fill="#212B36"/>
</svg>
