<svg width="24" height="25" viewBox="0 0 24 25" fill="none" xmlns="http://www.w3.org/2000/svg">
<path fill-rule="evenodd" clip-rule="evenodd" d="M2 12.0099C2 6.48704 6.47715 2.00989 12 2.00989C14.6522 2.00989 17.1957 3.06346 19.0711 4.93882C20.9464 6.81418 22 9.35772 22 12.0099C22 17.5327 17.5228 22.0099 12 22.0099C6.47715 22.0099 2 17.5327 2 12.0099ZM3.5 12.0099C3.5 16.7043 7.30558 20.5099 12 20.5099C14.2543 20.5099 16.4163 19.6144 18.0104 18.0203C19.6045 16.4262 20.5 14.2642 20.5 12.0099C20.5 7.31547 16.6944 3.50989 12 3.50989C7.30558 3.50989 3.5 7.31547 3.5 12.0099Z" fill="#212B36"/>
<path d="M12 7.00989C9.23858 7.00989 7 9.24846 7 12.0099C7 14.7713 9.23858 17.0099 12 17.0099C14.7614 17.0099 17 14.7713 17 12.0099C17 9.24846 14.7614 7.00989 12 7.00989Z" fill="#212B36"/>
</svg>
