<svg width="25" height="25" viewBox="0 0 25 25" fill="none" xmlns="http://www.w3.org/2000/svg">
<path fill-rule="evenodd" clip-rule="evenodd" d="M2.01172 12.0099C2.01172 6.48704 6.48887 2.00989 12.0117 2.00989C14.6639 2.00989 17.2074 3.06346 19.0828 4.93882C20.9582 6.81418 22.0117 9.35772 22.0117 12.0099C22.0117 17.5327 17.5346 22.0099 12.0117 22.0099C6.48887 22.0099 2.01172 17.5327 2.01172 12.0099ZM15.0175 14.0099C15.0175 13.7432 14.911 13.4877 14.7217 13.2999L13.4217 12.0099L14.7217 10.7199C15.1138 10.3278 15.1138 9.69201 14.7217 9.29989C14.3296 8.90777 13.6938 8.90777 13.3017 9.29989L12.0117 10.5999L10.7217 9.29989C10.3296 8.90777 9.69384 8.90777 9.30172 9.29989C8.9096 9.69201 8.9096 10.3278 9.30172 10.7199L10.6017 12.0099L9.30172 13.2999C9.11241 13.4877 9.00592 13.7432 9.00592 14.0099C9.00592 14.2765 9.11241 14.5321 9.30172 14.7199C9.48949 14.9092 9.74508 15.0157 10.0117 15.0157C10.2784 15.0157 10.534 14.9092 10.7217 14.7199L12.0117 13.4199L13.3017 14.7199C13.4895 14.9092 13.7451 15.0157 14.0117 15.0157C14.2784 15.0157 14.534 14.9092 14.7217 14.7199C14.911 14.5321 15.0175 14.2765 15.0175 14.0099Z" fill="#212B36"/>
</svg>
