<svg width="24" height="25" viewBox="0 0 24 25" fill="none" xmlns="http://www.w3.org/2000/svg">
<path fill-rule="evenodd" clip-rule="evenodd" d="M17.0998 20.8999C17.2421 20.9728 17.3999 21.0106 17.5598 21.0099C17.7807 21.0201 17.9987 20.9568 18.1798 20.8299C18.4966 20.603 18.6527 20.2127 18.5798 19.8299L17.5798 14.1999L21.6998 10.1999C21.9617 9.93851 22.0579 9.55382 21.9498 9.19991C21.8315 8.83733 21.5174 8.57358 21.1398 8.51991L15.4398 7.68991L12.8998 2.56991C12.7327 2.22492 12.3831 2.0058 11.9998 2.0058C11.6165 2.0058 11.2669 2.22492 11.0998 2.56991L8.58979 7.69991L2.88979 8.52991C2.51221 8.58358 2.19803 8.84733 2.07979 9.20991C1.97167 9.56382 2.06784 9.94851 2.32979 10.2099L6.44979 14.2099L5.44979 19.8399C5.38302 20.2158 5.53605 20.5968 5.84422 20.8221C6.15238 21.0474 6.56192 21.0776 6.89979 20.8999L11.9998 18.2299L17.0998 20.8999ZM12.4598 16.2199C12.3187 16.1438 12.1601 16.1059 11.9998 16.1099C11.8326 16.0767 11.6595 16.0905 11.4998 16.1499L7.72979 18.1499L8.44979 13.9899C8.50651 13.6635 8.39791 13.3302 8.15979 13.0999L5.15979 10.1699L9.35979 9.54991C9.68296 9.50315 9.96295 9.30156 10.1098 9.00991L11.9998 5.25991L13.8898 9.00991C14.0237 9.29903 14.2874 9.50702 14.5998 9.56991L18.7998 10.1899L15.7998 13.1199C15.5617 13.3502 15.4531 13.6835 15.5098 14.0099L16.2298 18.2199L12.4598 16.2199Z" fill="#212B36"/>
</svg>
