<svg width="24" height="25" viewBox="0 0 24 25" fill="none" xmlns="http://www.w3.org/2000/svg">
<path d="M21 6.00986H16V4.33986C15.9765 3.69968 15.7002 3.09492 15.2316 2.65815C14.7629 2.22139 14.1402 1.98826 13.5 2.00986H10.5C9.85975 1.98826 9.23706 2.22139 8.76843 2.65815C8.2998 3.09492 8.02346 3.69968 8 4.33986V6.00986H3C2.73478 6.00986 2.48043 6.11522 2.29289 6.30276C2.10536 6.49029 2 6.74465 2 7.00986C2 7.27508 2.10536 7.52943 2.29289 7.71697C2.48043 7.90451 2.73478 8.00986 3 8.00986H4V19.0099C4 19.8055 4.31607 20.5686 4.87868 21.1312C5.44129 21.6938 6.20435 22.0099 7 22.0099H17C17.7956 22.0099 18.5587 21.6938 19.1213 21.1312C19.6839 20.5686 20 19.8055 20 19.0099V8.00986H21C21.2652 8.00986 21.5196 7.90451 21.7071 7.71697C21.8946 7.52943 22 7.27508 22 7.00986C22 6.74465 21.8946 6.49029 21.7071 6.30276C21.5196 6.11522 21.2652 6.00986 21 6.00986ZM10 4.33986C10 4.17986 10.21 4.00986 10.5 4.00986H13.5C13.79 4.00986 14 4.17986 14 4.33986V6.00986H10V4.33986ZM18 19.0099C18 19.2751 17.8946 19.5294 17.7071 19.717C17.5196 19.9045 17.2652 20.0099 17 20.0099H7C6.73478 20.0099 6.48043 19.9045 6.29289 19.717C6.10536 19.5294 6 19.2751 6 19.0099V8.00986H18V19.0099Z" fill="#212B36"/>
<path d="M9 17.0099C9.26522 17.0099 9.51957 16.9045 9.70711 16.717C9.89464 16.5294 10 16.2751 10 16.0099V12.0099C10 11.7446 9.89464 11.4903 9.70711 11.3028C9.51957 11.1152 9.26522 11.0099 9 11.0099C8.73478 11.0099 8.48043 11.1152 8.29289 11.3028C8.10536 11.4903 8 11.7446 8 12.0099V16.0099C8 16.2751 8.10536 16.5294 8.29289 16.717C8.48043 16.9045 8.73478 17.0099 9 17.0099Z" fill="#212B36"/>
<path d="M15 17.0099C15.2652 17.0099 15.5196 16.9045 15.7071 16.717C15.8946 16.5294 16 16.2751 16 16.0099V12.0099C16 11.7446 15.8946 11.4903 15.7071 11.3028C15.5196 11.1152 15.2652 11.0099 15 11.0099C14.7348 11.0099 14.4804 11.1152 14.2929 11.3028C14.1054 11.4903 14 11.7446 14 12.0099V16.0099C14 16.2751 14.1054 16.5294 14.2929 16.717C14.4804 16.9045 14.7348 17.0099 15 17.0099Z" fill="#212B36"/>
</svg>
