<svg width="24" height="25" viewBox="0 0 24 25" fill="none" xmlns="http://www.w3.org/2000/svg">
<path d="M20.9998 7.00989C21.0093 6.94021 21.0093 6.86957 20.9998 6.79989C20.9911 6.74118 20.9743 6.68396 20.9498 6.62989C20.9234 6.58102 20.8933 6.53421 20.8598 6.48989C20.8218 6.42664 20.7746 6.36936 20.7198 6.31989L20.5998 6.24989C20.5421 6.20684 20.478 6.1731 20.4098 6.14989H20.2098C20.1489 6.09088 20.0777 6.04345 19.9998 6.00989H14.9998C14.4475 6.00989 13.9998 6.4576 13.9998 7.00989C13.9998 7.56217 14.4475 8.00989 14.9998 8.00989H17.8298L13.8298 12.7199L9.50981 10.1499C9.0871 9.89847 8.54432 9.99176 8.22981 10.3699L3.22981 16.3699C3.05975 16.574 2.97788 16.8373 3.00227 17.1019C3.02666 17.3664 3.1553 17.6103 3.35981 17.7799C3.53972 17.929 3.76616 18.0103 3.99981 18.0099C4.29724 18.0104 4.57945 17.8784 4.76981 17.6499L9.21981 12.3099L13.4898 14.8699C13.9079 15.1179 14.4438 15.0293 14.7598 14.6599L18.9998 9.70989V12.0099C18.9998 12.5622 19.4475 13.0099 19.9998 13.0099C20.5521 13.0099 20.9998 12.5622 20.9998 12.0099V7.00989Z" fill="#212B36"/>
</svg>
