<svg width="24" height="25" viewBox="0 0 24 25" fill="none" xmlns="http://www.w3.org/2000/svg">
<path d="M3 22.0099C2.45 22.0099 2 21.5599 2 21.0099V3.00989C2 2.45989 2.45 2.00989 3 2.00989C3.55 2.00989 4 2.45989 4 3.00989V21.0099C4 21.5599 3.55 22.0099 3 22.0099ZM20.5 7.00989H7.5C6.67 7.00989 6 7.67989 6 8.50989C6 9.33989 6.67 10.0099 7.5 10.0099H20.5C21.33 10.0099 22 9.33989 22 8.50989C22 7.67989 21.33 7.00989 20.5 7.00989ZM14.5 14.0099H7.5C6.67 14.0099 6 14.6799 6 15.5099C6 16.3399 6.67 17.0099 7.5 17.0099H14.5C15.33 17.0099 16 16.3399 16 15.5099C16 14.6799 15.33 14.0099 14.5 14.0099Z" fill="#212B36"/>
</svg>
