<?xml version="1.0" encoding="UTF-8"?><svg id="a" xmlns="http://www.w3.org/2000/svg" viewBox="0 0 75 75"><defs><style>.b{fill:#fff;}.c{fill:#7d57a4;fill-rule:evenodd;}</style></defs><path class="c" d="M7.25,15.29h60.78c3.85,0,6.97,3.12,6.97,6.97h0v23.19c0,3.85-3.12,6.94-6.97,6.94h-21.81l2.97,7.32-13.17-7.32H7.22c-3.82,0-6.94-3.12-6.94-6.94V22.26c0-3.85,3.12-6.97,6.97-6.97Z"/><path class="b" d="M4.05,21.58c.47-.59,1.18-.94,1.91-.94,1.56-.12,2.44,.62,2.67,2.2,.97,6.38,1.97,11.76,3.09,16.22l6.7-12.73c.62-1.15,1.38-1.76,2.29-1.82,1.35-.09,2.17,.76,2.53,2.56,.62,3.56,1.59,7.05,2.88,10.43,.79-7.76,2.15-13.34,4.03-16.81,.38-.79,1.15-1.32,2.03-1.35,.71-.06,1.38,.15,1.91,.59,.56,.41,.91,1.06,.94,1.76,.06,.5-.06,1.03-.29,1.47-1.21,2.2-2.17,5.88-2.94,11.02-.76,4.97-1.03,8.85-.85,11.64,.06,.68-.06,1.38-.35,2-.29,.65-.91,1.06-1.62,1.12-.79,.06-1.62-.32-2.41-1.12-2.85-2.91-5.08-7.23-6.76-12.99-1.97,3.91-3.44,6.85-4.41,8.79-1.79,3.44-3.32,5.23-4.61,5.32-.82,.06-1.53-.65-2.12-2.09-1.62-4.03-3.29-11.73-5.08-23.19-.15-.73,.03-1.5,.47-2.09Z"/><path class="b" d="M69.65,26.4c-1.03-1.85-2.82-3.14-4.88-3.53-.56-.12-1.09-.18-1.65-.18-2.91,0-5.32,1.53-7.17,4.56-1.59,2.59-2.41,5.56-2.38,8.58,0,2.35,.5,4.38,1.47,6.05,1.03,1.85,2.82,3.14,4.88,3.53,.56,.12,1.09,.18,1.65,.18,2.94,0,5.35-1.53,7.17-4.56,1.59-2.62,2.41-5.61,2.38-8.64,0-2.35-.5-4.35-1.47-6Zm-3.85,8.46c-.41,2-1.21,3.5-2.32,4.53-.88,.79-1.7,1.15-2.47,.97s-1.35-.79-1.79-1.97c-.35-.88-.53-1.82-.53-2.76,0-.76,.06-1.5,.24-2.23,.29-1.29,.85-2.53,1.62-3.62,1.03-1.5,2.09-2.12,3.17-1.88,.73,.15,1.35,.79,1.79,1.97,.35,.88,.53,1.82,.53,2.76,0,.73-.09,1.47-.24,2.23Z"/><path class="b" d="M50.52,26.4c-1.03-1.85-2.82-3.14-4.88-3.53-.56-.12-1.09-.18-1.65-.18-2.94,0-5.32,1.53-7.17,4.56-1.59,2.59-2.41,5.56-2.38,8.58,0,2.35,.5,4.38,1.47,6.05,1.03,1.85,2.82,3.14,4.88,3.53,.56,.12,1.09,.18,1.65,.18,2.97,0,5.35-1.53,7.17-4.56,1.59-2.62,2.41-5.58,2.38-8.64,.03-2.35-.47-4.35-1.47-6h0Zm-3.85,8.46c-.41,2-1.21,3.5-2.32,4.53-.91,.79-1.7,1.15-2.47,.97-.73-.15-1.35-.82-1.79-1.97-.35-.88-.53-1.82-.53-2.76,0-.76,.06-1.5,.24-2.23,.29-1.29,.85-2.53,1.62-3.62,1-1.5,2.06-2.12,3.17-1.88,.73,.15,1.35,.79,1.79,1.97,.35,.88,.53,1.82,.53,2.76,0,.73-.09,1.47-.24,2.23h0Z"/></svg>