<svg width="24" height="25" viewBox="0 0 24 25" fill="none" xmlns="http://www.w3.org/2000/svg">
<path d="M12 22.0099C8.77086 22.0883 6.08724 19.5388 6 16.3099V6.1399C6.06003 3.80587 7.99573 1.95957 10.33 2.0099C12.6681 1.95397 14.61 3.80187 14.67 6.1399V16.3199C14.5837 17.7284 13.4162 18.8266 12.005 18.8266C10.5938 18.8266 9.42632 17.7284 9.34 16.3199V6.9299C9.34 6.37762 9.78772 5.9299 10.34 5.9299C10.8923 5.9299 11.34 6.37762 11.34 6.9299V16.3199C11.3813 16.6558 11.6666 16.9082 12.005 16.9082C12.3434 16.9082 12.6287 16.6558 12.67 16.3199V6.1399C12.6053 4.90871 11.5618 3.95889 10.33 4.0099C9.10199 3.96451 8.0647 4.91276 8 6.1399V16.3099C8.08667 18.4344 9.87517 20.0888 12 20.0099C14.1248 20.0888 15.9133 18.4344 16 16.3099V6.1399C16 5.58762 16.4477 5.1399 17 5.1399C17.5523 5.1399 18 5.58762 18 6.1399V16.3099C17.9128 19.5388 15.2291 22.0883 12 22.0099Z" fill="#212B36"/>
</svg>
