<svg width="24" height="25" viewBox="0 0 24 25" fill="none" xmlns="http://www.w3.org/2000/svg">
<path fill-rule="evenodd" clip-rule="evenodd" d="M13 8.00989C13 8.55989 12.55 9.00989 12 9.00989C11.45 9.00989 11 8.55989 11 8.00989V6.00989H9C8.45 6.00989 8 5.55989 8 5.00989C8 4.45989 8.45 4.00989 9 4.00989H11V2.00989C11 1.45989 11.45 1.00989 12 1.00989C12.55 1.00989 13 1.45989 13 2.00989V4.00989H15C15.55 4.00989 16 4.45989 16 5.00989C16 5.55989 15.55 6.00989 15 6.00989H13V8.00989ZM5.01 20.0099C5.01 18.9099 5.9 18.0099 7 18.0099C8.1 18.0099 9 18.9099 9 20.0099C9 21.1099 8.1 22.0099 7 22.0099C5.9 22.0099 5.01 21.1099 5.01 20.0099ZM17 18.0099C15.9 18.0099 15.01 18.9099 15.01 20.0099C15.01 21.1099 15.9 22.0099 17 22.0099C18.1 22.0099 19 21.1099 19 20.0099C19 18.9099 18.1 18.0099 17 18.0099ZM15.55 13.0099H8.1L7 15.0099H18C18.55 15.0099 19 15.4599 19 16.0099C19 16.5599 18.55 17.0099 18 17.0099H7C5.48 17.0099 4.52 15.3799 5.25 14.0399L6.6 11.5999L3 4.00989H2C1.45 4.00989 1 3.55989 1 3.00989C1 2.45989 1.45 2.00989 2 2.00989H3.64C4.02 2.00989 4.38 2.22989 4.54 2.57989L8.53 11.0099H15.55L18.94 4.87989C19.2 4.39989 19.81 4.22989 20.29 4.48989C20.77 4.75989 20.95 5.36989 20.68 5.84989L17.3 11.9799C16.96 12.5999 16.3 13.0099 15.55 13.0099Z" fill="#212B36"/>
</svg>
