<svg width="24" height="25" viewBox="0 0 24 25" fill="none" xmlns="http://www.w3.org/2000/svg">
<path d="M3 8.00989C3 8.55989 3.45 9.00989 4 9.00989C4.55 9.00989 5 8.55989 5 8.00989V6.00989H7C7.55 6.00989 8 5.55989 8 5.00989C8 4.45989 7.55 4.00989 7 4.00989H5V2.00989C5 1.45989 4.55 1.00989 4 1.00989C3.45 1.00989 3 1.45989 3 2.00989V4.00989H1C0.45 4.00989 0 4.45989 0 5.00989C0 5.55989 0.45 6.00989 1 6.00989H3V8.00989Z" fill="#212B36"/>
<path d="M16 14.0099C16 15.6667 14.6569 17.0099 13 17.0099C11.3431 17.0099 10 15.6667 10 14.0099C10 12.353 11.3431 11.0099 13 11.0099C14.6569 11.0099 16 12.353 16 14.0099Z" fill="#212B36"/>
<path fill-rule="evenodd" clip-rule="evenodd" d="M17.83 6.00989H21C22.1 6.00989 23 6.90989 23 8.00989V20.0099C23 21.1099 22.1 22.0099 21 22.0099H5C3.9 22.0099 3 21.1099 3 20.0099V9.72989C3.3 9.89989 3.63 10.0099 4 10.0099C5.1 10.0099 6 9.10989 6 8.00989V7.00989H7C8.1 7.00989 9 6.10989 9 5.00989C9 4.63989 8.89 4.30989 8.72 4.00989H15.12C15.68 4.00989 16.22 4.24989 16.59 4.65989L17.83 6.00989ZM8 14.0099C8 16.7699 10.24 19.0099 13 19.0099C15.76 19.0099 18 16.7699 18 14.0099C18 11.2499 15.76 9.00989 13 9.00989C10.24 9.00989 8 11.2499 8 14.0099Z" fill="#212B36"/>
</svg>
