<svg width="24" height="24" viewBox="0 0 24 24" fill="none" xmlns="http://www.w3.org/2000/svg">
<path d="M11.6584 18.16C10.437 18.16 9.42371 17.8987 8.61838 17.376C7.81838 16.848 7.34104 16.0693 7.18638 15.04L8.73838 14.944C8.90904 15.5947 9.25038 16.0827 9.76238 16.408C10.2744 16.7333 10.9037 16.896 11.6504 16.896C12.0984 16.896 12.517 16.8187 12.9064 16.664C13.301 16.5093 13.6184 16.2933 13.8584 16.016C14.1037 15.7387 14.2264 15.4107 14.2264 15.032C14.2264 14.5253 14.0744 14.12 13.7704 13.816C13.4717 13.512 12.9944 13.272 12.3384 13.096L10.3464 12.576C9.48771 12.3573 8.80771 12.0133 8.30638 11.544C7.80504 11.0747 7.55171 10.4453 7.54638 9.656C7.54104 8.98933 7.71438 8.40267 8.06638 7.896C8.42371 7.38933 8.91438 6.99467 9.53838 6.712C10.1677 6.42933 10.893 6.288 11.7144 6.288C12.5037 6.288 13.1837 6.44 13.7544 6.744C14.3304 7.04267 14.7757 7.44 15.0904 7.936C15.4104 8.432 15.581 8.97333 15.6024 9.56L14.0984 9.64C13.981 8.952 13.7277 8.432 13.3384 8.08C12.9544 7.72267 12.413 7.544 11.7144 7.544C11.3837 7.544 11.0637 7.58667 10.7544 7.672C10.4504 7.752 10.1757 7.87467 9.93038 8.04C9.69038 8.20533 9.49838 8.41067 9.35438 8.656C9.21038 8.90133 9.13838 9.18667 9.13838 9.512C9.13838 9.928 9.28504 10.2587 9.57838 10.504C9.87171 10.744 10.3997 10.9813 11.1624 11.216L13.0824 11.76C14.0637 12.032 14.7624 12.456 15.1784 13.032C15.5997 13.6027 15.8104 14.264 15.8104 15.016C15.8104 15.6293 15.637 16.1733 15.2904 16.648C14.9437 17.1173 14.4557 17.488 13.8264 17.76C13.2024 18.0267 12.4797 18.16 11.6584 18.16ZM11.0344 4.704H12.4024V6.768H11.0344V4.704ZM10.9384 17.608H12.3064V19.672H10.9384V17.608Z" fill="#637381"/>
</svg>
