<svg width="24" height="25" viewBox="0 0 24 25" fill="none" xmlns="http://www.w3.org/2000/svg">
<path fill-rule="evenodd" clip-rule="evenodd" d="M22.5601 16.3099L14.8901 3.58989C14.2598 2.60389 13.1703 2.00726 12.0001 2.00726C10.8299 2.00726 9.74038 2.60389 9.1101 3.58989L1.4401 16.3099C0.888647 17.2291 0.869586 18.3728 1.3901 19.3099C1.99207 20.365 3.11533 21.0145 4.3301 21.0099H19.6701C20.8766 21.0228 21.9979 20.3896 22.6101 19.3499C23.1462 18.4025 23.1271 17.2391 22.5601 16.3099ZM12.0001 17.0099C11.4478 17.0099 11.0001 16.5622 11.0001 16.0099C11.0001 15.4576 11.4478 15.0099 12.0001 15.0099C12.5524 15.0099 13.0001 15.4576 13.0001 16.0099C13.0001 16.5622 12.5524 17.0099 12.0001 17.0099ZM12.0001 14.0099C12.5524 14.0099 13.0001 13.5622 13.0001 13.0099V9.00989C13.0001 8.4576 12.5524 8.00989 12.0001 8.00989C11.4478 8.00989 11.0001 8.4576 11.0001 9.00989V13.0099C11.0001 13.5622 11.4478 14.0099 12.0001 14.0099Z" fill="#212B36"/>
</svg>
