<svg width="24" height="25" viewBox="0 0 24 25" fill="none" xmlns="http://www.w3.org/2000/svg">
<path d="M19 3.00989H7C6.20435 3.00989 5.44129 3.32596 4.87868 3.88857C4.31607 4.45118 4 5.21424 4 6.00989V18.0099C4 18.8055 4.31607 19.5686 4.87868 20.1312C5.44129 20.6938 6.20435 21.0099 7 21.0099H19C19.2652 21.0099 19.5196 20.9045 19.7071 20.717C19.8946 20.5295 20 20.2751 20 20.0099V4.00989C20 3.74467 19.8946 3.49032 19.7071 3.30278C19.5196 3.11524 19.2652 3.00989 19 3.00989V3.00989ZM7 19.0099C6.73478 19.0099 6.48043 18.9045 6.29289 18.717C6.10536 18.5295 6 18.2751 6 18.0099C6 17.7447 6.10536 17.4903 6.29289 17.3028C6.48043 17.1152 6.73478 17.0099 7 17.0099H18V19.0099H7Z" fill="#212B36"/>
</svg>
