<svg width="24" height="25" viewBox="0 0 24 25" fill="none" xmlns="http://www.w3.org/2000/svg">
<path d="M7.34375 7.07239H17.0938C17.1969 7.07239 17.2812 6.98801 17.2812 6.88489C17.2812 5.94739 17.075 5.08723 16.6742 4.35129C16.2711 3.61301 15.6781 3.02004 14.9398 2.61692C14.2039 2.21614 13.3438 2.00989 12.4062 2.00989H12.0312C11.0938 2.00989 10.2336 2.21614 9.49766 2.61692C8.75938 3.02004 8.16641 3.61301 7.76328 4.35129C7.3625 5.08723 7.15625 5.94739 7.15625 6.88489C7.15625 6.98801 7.24063 7.07239 7.34375 7.07239Z" fill="#212B36"/>
<path d="M22.25 12.5099H18.7812V10.1661C20.5812 10.1661 22.0391 8.70833 22.0391 6.90833C22.0391 6.8052 21.9547 6.72083 21.8516 6.72083H20.4453C20.3422 6.72083 20.2578 6.8052 20.2578 6.90833C20.2578 7.72395 19.5969 8.38489 18.7812 8.38489H5.65625C4.84063 8.38489 4.17969 7.72395 4.17969 6.90833C4.17969 6.8052 4.09531 6.72083 3.99219 6.72083H2.58594C2.48281 6.72083 2.39844 6.8052 2.39844 6.90833C2.39844 8.70833 3.85625 10.1661 5.65625 10.1661V12.5099H2.1875C2.08438 12.5099 2 12.5943 2 12.6974V14.0099C2 14.113 2.08438 14.1974 2.1875 14.1974H5.65625V16.4474C5.65625 16.5997 5.66094 16.7521 5.67266 16.8997C4.06484 17.5865 2.9375 19.1825 2.9375 21.0411C2.9375 21.1443 3.02188 21.2286 3.125 21.2286H4.4375C4.54063 21.2286 4.625 21.1443 4.625 21.0411C4.625 20.0052 5.18516 19.0982 6.02187 18.6107C6.1625 19.0138 6.34063 19.3982 6.55391 19.7591C7.12344 20.7318 7.93672 21.545 8.90938 22.1146C9.58672 22.5107 10.3391 22.7896 11.143 22.9232C11.2461 22.9232 11.3305 22.8388 11.3305 22.7357V11.8536C11.3305 11.7505 11.4148 11.6661 11.518 11.6661H12.9242C13.0273 11.6661 13.1117 11.7505 13.1117 11.8536V22.7333C13.1117 22.8365 13.1961 22.9208 13.2992 22.9208C14.1031 22.7872 14.8555 22.5083 15.5328 22.1122C16.5055 21.5427 17.3187 20.7294 17.8883 19.7568C18.1016 19.3935 18.2797 19.0091 18.4203 18.6083C19.2523 19.0982 19.8125 20.0052 19.8125 21.0411C19.8125 21.1443 19.8969 21.2286 20 21.2286H21.3125C21.4156 21.2286 21.5 21.1443 21.5 21.0411C21.5 19.1825 20.3727 17.5865 18.7648 16.8997C18.7742 16.7497 18.7812 16.5997 18.7812 16.4474V14.1974H22.25C22.3531 14.1974 22.4375 14.113 22.4375 14.0099V12.6974C22.4375 12.5943 22.3531 12.5099 22.25 12.5099Z" fill="#212B36"/>
</svg>
