<svg width="24" height="25" viewBox="0 0 24 25" fill="none" xmlns="http://www.w3.org/2000/svg">
<path fill-rule="evenodd" clip-rule="evenodd" d="M7 2.00989C4.23858 2.00989 2 4.24846 2 7.00989V17.0099C2 19.7713 4.23858 22.0099 7 22.0099H17C19.7614 22.0099 22 19.7713 22 17.0099V7.00989C22 4.24846 19.7614 2.00989 17 2.00989H7ZM9 13.0099H15C15.5523 13.0099 16 12.5622 16 12.0099C16 11.4576 15.5523 11.0099 15 11.0099H9C8.44772 11.0099 8 11.4576 8 12.0099C8 12.5622 8.44772 13.0099 9 13.0099Z" fill="#212B36"/>
</svg>
