<svg width="24" height="25" viewBox="0 0 24 25" fill="none" xmlns="http://www.w3.org/2000/svg">
<path fill-rule="evenodd" clip-rule="evenodd" d="M16.6997 8.71986L21.2897 4.12986C21.6797 3.73986 21.6797 3.10986 21.2997 2.70986C20.9097 2.31986 20.2797 2.31986 19.8897 2.70986L15.2997 7.29986L13.7097 5.70986C13.0797 5.07986 11.9997 5.52986 11.9997 6.41986V11.0199C11.9997 11.5699 12.4497 12.0199 12.9997 12.0199H17.5797C18.4697 12.0199 18.9197 10.9399 18.2897 10.3099L16.6997 8.71986ZM8.70973 16.7099L4.11973 21.2999C3.72973 21.6899 3.09973 21.6899 2.69973 21.3099C2.30973 20.9199 2.30973 20.2899 2.69973 19.8999L7.28973 15.3099L5.69973 13.7199C5.06973 13.0899 5.51973 12.0099 6.40973 12.0099H11.0097C11.5597 12.0099 12.0097 12.4599 12.0097 13.0099V17.5899C12.0097 18.4799 10.9297 18.9299 10.2997 18.2999L8.70973 16.7099Z" fill="#212B36"/>
</svg>
