<svg width="24" height="25" viewBox="0 0 24 25" fill="none" xmlns="http://www.w3.org/2000/svg">
<path d="M21.9 12.0099C21.9 11.8999 21.84 11.7899 21.81 11.6799C21.7637 11.4858 21.7036 11.2953 21.63 11.1099C21.58 10.9899 21.51 10.8699 21.45 10.7399C21.39 10.6099 21.3 10.4399 21.21 10.2999C21.12 10.1599 21 10.0899 21 10.0099C21 9.92987 20.8 9.75987 20.69 9.63987C20.58 9.51987 20.48 9.43987 20.37 9.33987L20 9.00987L19.64 8.76987C19.4987 8.68338 19.3517 8.60654 19.2 8.53987L18.81 8.35987C18.6467 8.29938 18.4797 8.24927 18.31 8.20987C18.1756 8.17033 18.0386 8.14026 17.9 8.11987L17.67 8.00987C17.262 6.83092 16.4966 5.80849 15.4803 5.08483C14.4641 4.36117 13.2476 3.97229 12 3.97229C10.7524 3.97229 9.5359 4.36117 8.51967 5.08483C7.50343 5.80849 6.73804 6.83092 6.33 8.00987L6.15 8.05987C6.0114 8.08026 5.8744 8.11033 5.74 8.14987C5.57034 8.18927 5.40334 8.23937 5.24 8.29987L4.85 8.47987C4.69832 8.54654 4.55132 8.62338 4.41 8.70987L4.05 9.00987L3.68 9.31987C3.57 9.41987 3.46 9.50987 3.36 9.61987C3.26 9.72987 3.15 9.86987 3.05 9.98987C2.95 10.1099 2.87 10.2199 2.79 10.3499C2.71 10.4799 2.63 10.6399 2.55 10.7899C2.47 10.9399 2.42 11.0399 2.37 11.1599C2.29644 11.3453 2.23629 11.5358 2.19 11.7299C2.19 11.8399 2.12 11.9499 2.1 12.0599C2.03776 12.3728 2.00428 12.6908 2 13.0099C2.00469 13.3152 2.03479 13.6196 2.09 13.9199C2.09 14.0199 2.14 14.1099 2.16 14.2099C2.20943 14.4063 2.26952 14.5999 2.34 14.7899L2.46 15.0799C2.54803 15.2727 2.64823 15.4597 2.76 15.6399L2.9 15.8599C2.91439 15.8879 2.93111 15.9147 2.95 15.9399L3 16.0099C3.46574 16.6308 4.06966 17.1349 4.76393 17.482C5.45821 17.8291 6.22377 18.0099 7 18.0099H10V16.6399C9.69616 16.8161 9.35126 16.9092 9 16.9099C8.45825 16.9048 7.94054 16.6855 7.56 16.2999C7.37729 16.1109 7.23364 15.8877 7.13726 15.6431C7.04087 15.3985 6.99365 15.1373 6.9983 14.8745C7.00294 14.6117 7.05936 14.3523 7.16432 14.1113C7.26928 13.8703 7.42073 13.6523 7.61 13.4699L10.61 10.5699C10.9832 10.2101 11.4816 10.0093 12 10.0099C12.5296 10.0121 13.0367 10.2243 13.41 10.5999L16.41 13.5999C16.7825 13.9746 16.9916 14.4815 16.9916 15.0099C16.9916 15.5382 16.7825 16.0451 16.41 16.4199C16.0367 16.7955 15.5296 17.0076 15 17.0099C14.6482 17.0132 14.3023 16.9198 14 16.7399V18.0099H17C17.7762 18.0099 18.5418 17.8291 19.2361 17.482C19.9303 17.1349 20.5343 16.6308 21 16.0099L21.05 15.9599C21.0689 15.9347 21.0856 15.9079 21.1 15.8799L21.24 15.6599C21.3518 15.4797 21.452 15.2927 21.54 15.0999L21.66 14.8099C21.7305 14.6199 21.7906 14.4263 21.84 14.2299C21.84 14.1299 21.89 14.0399 21.91 13.9399C21.9663 13.633 21.9964 13.3219 22 13.0099C21.9988 12.6741 21.9654 12.3392 21.9 12.0099Z" fill="#212B36"/>
<path d="M12.71 11.2999C12.5231 11.1166 12.2718 11.014 12.01 11.014C11.7482 11.014 11.4969 11.1166 11.31 11.2999L8.31 14.1999C8.20389 14.2874 8.11699 14.3959 8.05473 14.5186C7.99247 14.6413 7.95619 14.7755 7.94816 14.9128C7.94013 15.0502 7.96053 15.1877 8.00807 15.3168C8.05561 15.4459 8.12928 15.5638 8.22447 15.6631C8.31965 15.7624 8.43431 15.841 8.56126 15.894C8.68822 15.947 8.82474 15.9732 8.9623 15.9711C9.09985 15.9689 9.23547 15.9383 9.36069 15.8814C9.4859 15.8244 9.59801 15.7422 9.69 15.6399L11 14.3699V20.0099C11 20.2751 11.1054 20.5294 11.2929 20.717C11.4804 20.9045 11.7348 21.0099 12 21.0099C12.2652 21.0099 12.5196 20.9045 12.7071 20.717C12.8946 20.5294 13 20.2751 13 20.0099V14.4199L14.29 15.7199C14.383 15.8136 14.4936 15.888 14.6154 15.9388C14.7373 15.9895 14.868 16.0157 15 16.0157C15.132 16.0157 15.2627 15.9895 15.3846 15.9388C15.5064 15.888 15.617 15.8136 15.71 15.7199C15.8037 15.6269 15.8781 15.5163 15.9289 15.3944C15.9797 15.2726 16.0058 15.1419 16.0058 15.0099C16.0058 14.8779 15.9797 14.7472 15.9289 14.6253C15.8781 14.5034 15.8037 14.3928 15.71 14.2999L12.71 11.2999Z" fill="#212B36"/>
</svg>
