<svg width="24" height="25" viewBox="0 0 24 25" fill="none" xmlns="http://www.w3.org/2000/svg">
<path d="M12.0223 8.51225C12.2559 8.5118 12.4824 8.59317 12.6623 8.74225L18.6623 13.7423C19.0875 14.0957 19.1457 14.727 18.7923 15.1523C18.4388 15.5775 17.8075 15.6357 17.3823 15.2823L12.0223 10.8023L6.66228 15.1223C6.45569 15.29 6.19074 15.3685 5.9261 15.3404C5.66145 15.3122 5.41895 15.1797 5.25228 14.9723C5.06714 14.7644 4.97702 14.4888 5.00359 14.2117C5.03016 13.9346 5.17102 13.6811 5.39228 13.5123L11.3923 8.68225C11.5774 8.55674 11.7992 8.49688 12.0223 8.51225Z" fill="#212B36"/>
</svg>
