<svg width="24" height="25" viewBox="0 0 24 25" fill="none" xmlns="http://www.w3.org/2000/svg">
<path d="M19 4.00989H18V3.00989C18 2.45989 17.55 2.00989 17 2.00989C16.45 2.00989 16 2.45989 16 3.00989V4.00989H8V3.00989C8 2.45989 7.55 2.00989 7 2.00989C6.45 2.00989 6 2.45989 6 3.00989V4.00989H5C3.89 4.00989 3.01 4.90989 3.01 6.00989L3 20.0099C3 20.5403 3.21071 21.049 3.58579 21.4241C3.96086 21.7992 4.46957 22.0099 5 22.0099H19C20.1 22.0099 21 21.1099 21 20.0099V6.00989C21 4.90989 20.1 4.00989 19 4.00989ZM19 20.0099H5V10.0099H19V20.0099Z" fill="#212B36"/>
</svg>
