<svg width="24" height="25" viewBox="0 0 24 25" fill="none" xmlns="http://www.w3.org/2000/svg">
<path fill-rule="evenodd" clip-rule="evenodd" d="M7 2.00989C4.23858 2.00989 2 4.24846 2 7.00989V17.0099C2 19.7713 4.23858 22.0099 7 22.0099H17C19.7614 22.0099 22 19.7713 22 17.0099V7.00989C22 4.24846 19.7614 2.00989 17 2.00989H7ZM11.865 15.2549L16.615 10.5049C16.955 10.1649 16.955 9.61489 16.615 9.26489C16.275 8.92489 15.715 8.92489 15.375 9.26489L11.245 13.3949L9.495 11.6449C9.155 11.3049 8.595 11.3049 8.255 11.6449C7.915 11.9849 7.915 12.5349 8.255 12.8849L10.635 15.2549C10.805 15.4249 11.025 15.5049 11.245 15.5049C11.475 15.5049 11.695 15.4249 11.865 15.2549Z" fill="#212B36"/>
</svg>
