<svg width="24" height="25" viewBox="0 0 24 25" fill="none" xmlns="http://www.w3.org/2000/svg">
<path d="M21.08 7.01047C20.9072 6.71109 20.6598 6.46161 20.3618 6.28635C20.0639 6.11109 19.7256 6.01604 19.38 6.01047H6.58L6 3.75047C5.9414 3.53231 5.81066 3.34042 5.62908 3.20605C5.44749 3.07167 5.22576 3.00274 5 3.01047H3C2.73478 3.01047 2.48043 3.11583 2.29289 3.30337C2.10536 3.4909 2 3.74526 2 4.01047C2 4.27569 2.10536 4.53004 2.29289 4.71758C2.48043 4.90512 2.73478 5.01047 3 5.01047H4.24L7 15.2705C7.0586 15.4886 7.18934 15.6805 7.37092 15.8149C7.55251 15.9493 7.77424 16.0182 8 16.0105H17C17.1847 16.0099 17.3656 15.9582 17.5227 15.8612C17.6798 15.7641 17.8069 15.6254 17.89 15.4605L21.17 8.90047C21.3122 8.60249 21.3783 8.27394 21.3626 7.94416C21.3469 7.61437 21.2498 7.2936 21.08 7.01047Z" fill="#212B36"/>
<path d="M7.5 21.0105C8.32843 21.0105 9 20.3389 9 19.5105C9 18.682 8.32843 18.0105 7.5 18.0105C6.67157 18.0105 6 18.682 6 19.5105C6 20.3389 6.67157 21.0105 7.5 21.0105Z" fill="#212B36"/>
<path d="M17.5 21.0105C18.3284 21.0105 19 20.3389 19 19.5105C19 18.682 18.3284 18.0105 17.5 18.0105C16.6716 18.0105 16 18.682 16 19.5105C16 20.3389 16.6716 21.0105 17.5 21.0105Z" fill="#212B36"/>
</svg>
