<svg width="24" height="25" viewBox="0 0 24 25" fill="none" xmlns="http://www.w3.org/2000/svg">
<path d="M9.99981 19.0099C9.76616 19.0103 9.53972 18.929 9.35981 18.7799C9.1553 18.6103 9.02666 18.3664 9.00227 18.1019C8.97788 17.8373 9.05975 17.574 9.22981 17.3699L13.7098 12.0099L9.38981 6.63989C9.22204 6.4333 9.14354 6.16835 9.17169 5.90371C9.19985 5.63907 9.33233 5.39657 9.53981 5.22989C9.74898 5.04585 10.0254 4.95742 10.3026 4.98589C10.5797 5.01437 10.8324 5.15717 10.9998 5.37989L15.8298 11.3799C16.1331 11.7489 16.1331 12.2809 15.8298 12.6499L10.8298 18.6499C10.6263 18.8953 10.318 19.0291 9.99981 19.0099Z" fill="#212B36"/>
</svg>
