<svg width="24" height="25" viewBox="0 0 24 25" fill="none" xmlns="http://www.w3.org/2000/svg">
<path d="M17.9999 7.05989C17.9999 6.79467 17.8946 6.54032 17.707 6.35278C17.5195 6.16524 17.2652 6.05989 16.9999 6.05989L8.99994 6.00989C8.73472 6.00989 8.48037 6.11524 8.29283 6.30278C8.1053 6.49032 7.99994 6.74467 7.99994 7.00989C7.99994 7.2751 8.1053 7.52946 8.29283 7.71699C8.48037 7.90453 8.73472 8.00989 8.99994 8.00989H14.5599L6.28994 16.2999C6.19621 16.3929 6.12182 16.5035 6.07105 16.6253C6.02028 16.7472 5.99414 16.8779 5.99414 17.0099C5.99414 17.1419 6.02028 17.2726 6.07105 17.3945C6.12182 17.5163 6.19621 17.6269 6.28994 17.7199C6.3829 17.8136 6.4935 17.888 6.61536 17.9388C6.73722 17.9895 6.86793 18.0157 6.99994 18.0157C7.13195 18.0157 7.26266 17.9895 7.38452 17.9388C7.50638 17.888 7.61698 17.8136 7.70994 17.7199L15.9999 9.42989V15.0099C15.9999 15.2751 16.1053 15.5295 16.2928 15.717C16.4804 15.9045 16.7347 16.0099 16.9999 16.0099C17.2652 16.0099 17.5195 15.9045 17.707 15.717C17.8946 15.5295 17.9999 15.2751 17.9999 15.0099V7.05989Z" fill="#212B36"/>
</svg>
