<svg width="24" height="25" viewBox="0 0 24 25" fill="none" xmlns="http://www.w3.org/2000/svg">
<path d="M16.62 6.21988C16.4109 6.05434 16.1444 5.97918 15.8796 6.0111C15.6148 6.04302 15.3738 6.17938 15.21 6.38988L8.21001 15.3899L4.78001 11.2099C4.56095 10.9183 4.20051 10.7691 3.83944 10.8205C3.47837 10.8719 3.17395 11.1159 3.04503 11.4571C2.91612 11.7982 2.98318 12.1825 3.22001 12.4599L7.39001 17.6399C7.58064 17.8749 7.86742 18.0109 8.17001 18.0099C8.49172 18.0242 8.80067 17.8828 9.00001 17.6299L16.83 7.62988C16.9913 7.41581 17.0598 7.14597 17.0204 6.88089C16.9809 6.61581 16.8366 6.37766 16.62 6.21988Z" fill="#212B36"/>
<path d="M21.62 6.21988C21.4109 6.05434 21.1444 5.97918 20.8796 6.0111C20.6148 6.04302 20.3738 6.17938 20.21 6.38988L13.21 15.3899L12.6 14.6399L11.34 16.2599L12.44 17.6299C12.6306 17.8649 12.9174 18.0009 13.22 17.9999C13.5243 17.9985 13.8114 17.8586 14 17.6199L21.83 7.61988C21.9881 7.40647 22.0548 7.13896 22.0154 6.87632C21.976 6.61369 21.8337 6.37751 21.62 6.21988Z" fill="#212B36"/>
<path d="M8.71001 13.0699L10 11.4499L9.80001 11.2099C9.64048 10.9889 9.39763 10.8425 9.12768 10.8048C8.85773 10.767 8.58406 10.8411 8.37001 11.0099C8.16253 11.1766 8.03005 11.4191 8.00189 11.6837C7.97374 11.9483 8.05224 12.2133 8.22001 12.4199L8.71001 13.0699Z" fill="#212B36"/>
</svg>
