<svg width="25" height="25" viewBox="0 0 25 25" fill="none" xmlns="http://www.w3.org/2000/svg">
<path d="M12.0118 13.5099C12.8402 13.5099 13.5118 12.8383 13.5118 12.0099C13.5118 11.1815 12.8402 10.5099 12.0118 10.5099C11.1834 10.5099 10.5118 11.1815 10.5118 12.0099C10.5118 12.8383 11.1834 13.5099 12.0118 13.5099Z" fill="#212B36"/>
<path d="M15.3018 18.1299L14.0118 16.7899L12.6718 15.4499C12.4703 15.4852 12.2663 15.5053 12.0618 15.5099C11.598 15.5165 11.1375 15.4309 10.707 15.258C10.2766 15.085 9.88485 14.8283 9.55453 14.5026C9.22421 14.1769 8.96192 13.7889 8.78291 13.3609C8.6039 12.933 8.51174 12.4738 8.51179 12.0099C8.51643 11.8053 8.53648 11.6014 8.57179 11.3999L6.57179 9.39989L5.01179 7.87989C3.88311 8.94336 2.9162 10.1663 2.14179 11.5099C2.05402 11.6619 2.00781 11.8344 2.00781 12.0099C2.00781 12.1854 2.05402 12.3579 2.14179 12.5099C2.77179 13.5999 6.14179 19.0099 12.0318 19.0099H12.2818C13.3893 18.977 14.4825 18.7503 15.5118 18.3399L15.3018 18.1299Z" fill="#212B36"/>
<path d="M11.4018 8.56989C11.6033 8.53459 11.8072 8.51453 12.0118 8.50989C12.94 8.50989 13.8303 8.87864 14.4867 9.53502C15.143 10.1914 15.5118 11.0816 15.5118 12.0099C15.5071 12.2144 15.4871 12.4184 15.4518 12.6199L18.9718 16.1399C20.1146 15.0792 21.0951 13.8561 21.8818 12.5099C21.9696 12.3579 22.0158 12.1854 22.0158 12.0099C22.0158 11.8344 21.9696 11.6619 21.8818 11.5099C21.2418 10.3999 17.7218 4.82989 11.7418 5.00989C10.6342 5.04274 9.54102 5.26951 8.51179 5.67989L11.4018 8.56989Z" fill="#212B36"/>
<path d="M20.7218 19.2999L19.4218 18.0099L4.72179 3.29989C4.62855 3.20665 4.51786 3.13269 4.39604 3.08223C4.27421 3.03177 4.14365 3.0058 4.01179 3.0058C3.87993 3.0058 3.74936 3.03177 3.62754 3.08223C3.50572 3.13269 3.39503 3.20665 3.30179 3.29989C3.11348 3.48819 3.0077 3.74359 3.0077 4.00989C3.0077 4.27619 3.11348 4.53159 3.30179 4.71989L5.54179 7.00989L7.29179 8.70989L16.6018 18.0099L19.3018 20.7199C19.3948 20.8136 19.5054 20.888 19.6272 20.9388C19.7491 20.9895 19.8798 21.0157 20.0118 21.0157C20.1438 21.0157 20.2745 20.9895 20.3964 20.9388C20.5182 20.888 20.6288 20.8136 20.7218 20.7199C20.8155 20.6269 20.8899 20.5163 20.9407 20.3945C20.9914 20.2726 21.0176 20.1419 21.0176 20.0099C21.0176 19.8779 20.9914 19.7472 20.9407 19.6253C20.8899 19.5035 20.8155 19.3929 20.7218 19.2999Z" fill="#212B36"/>
</svg>
