<svg width="24" height="25" viewBox="0 0 24 25" fill="none" xmlns="http://www.w3.org/2000/svg">
<path d="M20 5.00989C20 4.4576 19.5523 4.00989 19 4.00989H14C13.4477 4.00989 13 4.4576 13 5.00989C13 5.56217 13.4477 6.00989 14 6.00989H16.57L13.29 9.29989C13.1007 9.48765 12.9942 9.74325 12.9942 10.0099C12.9942 10.2765 13.1007 10.5321 13.29 10.7199C13.4778 10.9092 13.7334 11.0157 14 11.0157C14.2666 11.0157 14.5222 10.9092 14.71 10.7199L18 7.42989V10.0099C18 10.5622 18.4477 11.0099 19 11.0099C19.5523 11.0099 20 10.5622 20 10.0099V5.00989Z" fill="#212B36"/>
<path d="M10.71 13.2999C10.5222 13.1106 10.2666 13.0041 10 13.0041C9.73336 13.0041 9.47777 13.1106 9.29 13.2999L6 16.5799V14.0099C6 13.4576 5.55228 13.0099 5 13.0099C4.44772 13.0099 4 13.4576 4 14.0099V19.0099C4 19.5622 4.44772 20.0099 5 20.0099H10C10.5523 20.0099 11 19.5622 11 19.0099C11 18.4576 10.5523 18.0099 10 18.0099H7.42L10.71 14.7199C10.8993 14.5321 11.0058 14.2765 11.0058 14.0099C11.0058 13.7433 10.8993 13.4877 10.71 13.2999Z" fill="#212B36"/>
</svg>
