<svg width="24" height="25" viewBox="0 0 24 25" fill="none" xmlns="http://www.w3.org/2000/svg">
<path d="M19.74 7.33988L15.3 2.33988C15.2065 2.23629 15.0924 2.15341 14.9649 2.09658C14.8375 2.03975 14.6995 2.01021 14.56 2.00988H6.56C6.22775 2.00592 5.89797 2.06744 5.5895 2.19094C5.28103 2.31444 4.9999 2.49749 4.76218 2.72964C4.52446 2.96179 4.33479 3.23849 4.20402 3.54395C4.07324 3.84941 4.00392 4.17763 4 4.50988V19.5099C4.00392 19.8421 4.07324 20.1704 4.20402 20.4758C4.33479 20.7813 4.52446 21.058 4.76218 21.2901C4.9999 21.5223 5.28103 21.7053 5.5895 21.8288C5.89797 21.9523 6.22775 22.0138 6.56 22.0099H17.44C17.7723 22.0138 18.102 21.9523 18.4105 21.8288C18.719 21.7053 19.0001 21.5223 19.2378 21.2901C19.4755 21.058 19.6652 20.7813 19.796 20.4758C19.9268 20.1704 19.9961 19.8421 20 19.5099V8.00988C19.9994 7.76205 19.9067 7.52328 19.74 7.33988V7.33988ZM14 4.00988L17.74 8.00988H14.74C14.6353 8.00356 14.5329 7.97645 14.4387 7.93012C14.3446 7.88379 14.2607 7.81917 14.1918 7.74005C14.1229 7.66092 14.0704 7.56887 14.0375 7.46926C14.0046 7.36965 13.9918 7.26448 14 7.15988V4.00988Z" fill="#212B36"/>
</svg>
