<svg width="24" height="25" viewBox="0 0 24 25" fill="none" xmlns="http://www.w3.org/2000/svg">
<path fill-rule="evenodd" clip-rule="evenodd" d="M3 7.00989C3 7.55989 3.45 8.00989 4 8.00989H20C20.55 8.00989 21 7.55989 21 7.00989C21 6.45989 20.55 6.00989 20 6.00989H4C3.45 6.00989 3 6.45989 3 7.00989ZM11 18.0099H13C13.55 18.0099 14 17.5599 14 17.0099C14 16.4599 13.55 16.0099 13 16.0099H11C10.45 16.0099 10 16.4599 10 17.0099C10 17.5599 10.45 18.0099 11 18.0099ZM17 13.0099H7C6.45 13.0099 6 12.5599 6 12.0099C6 11.4599 6.45 11.0099 7 11.0099H17C17.55 11.0099 18 11.4599 18 12.0099C18 12.5599 17.55 13.0099 17 13.0099Z" fill="#212B36"/>
</svg>
