<svg width="24" height="25" viewBox="0 0 24 25" fill="none" xmlns="http://www.w3.org/2000/svg">
<path d="M11.1096 23.01C10.9936 23.0098 10.8786 22.9895 10.7696 22.95C10.3368 22.7915 10.0684 22.3579 10.1196 21.9L10.8896 14.81H4.99956C4.62935 14.8105 4.28912 14.6065 4.11523 14.2797C3.94134 13.9528 3.96224 13.5567 4.16956 13.25L12.0596 1.44995C12.3163 1.07001 12.7986 0.913383 13.2296 1.06995C13.643 1.22346 13.9071 1.62975 13.8796 2.06995L13.1096 9.20995H18.9996C19.3698 9.20939 19.71 9.41341 19.8839 9.74024C20.0578 10.0671 20.0369 10.4632 19.8296 10.77L11.9396 22.57C11.7533 22.8455 11.4422 23.0105 11.1096 23.01V23.01Z" fill="#212B36"/>
</svg>
