<svg width="24" height="25" viewBox="0 0 24 25" fill="none" xmlns="http://www.w3.org/2000/svg">
<path fill-rule="evenodd" clip-rule="evenodd" d="M12 2.00989C6.47715 2.00989 2 6.48704 2 12.0099C2 17.5327 6.47715 22.0099 12 22.0099C17.5228 22.0099 22 17.5327 22 12.0099C22 9.35772 20.9464 6.81418 19.0711 4.93882C17.1957 3.06346 14.6522 2.00989 12 2.00989ZM13 16.0099C13 16.5622 12.5523 17.0099 12 17.0099C11.4477 17.0099 11 16.5622 11 16.0099V11.0099C11 10.4576 11.4477 10.0099 12 10.0099C12.5523 10.0099 13 10.4576 13 11.0099V16.0099ZM11 8.00989C11 8.56217 11.4477 9.00989 12 9.00989C12.5523 9.00989 13 8.56217 13 8.00989C13 7.4576 12.5523 7.00989 12 7.00989C11.4477 7.00989 11 7.4576 11 8.00989Z" fill="#212B36"/>
</svg>
