<svg width="24" height="25" viewBox="0 0 24 25" fill="none" xmlns="http://www.w3.org/2000/svg">
<path d="M4 8.00989C4.55228 8.00989 5 7.56217 5 7.00989C5 6.4576 4.55228 6.00989 4 6.00989C3.44772 6.00989 3 6.4576 3 7.00989C3 7.56217 3.44772 8.00989 4 8.00989Z" fill="#212B36"/>
<path d="M4 13.0099C4.55228 13.0099 5 12.5622 5 12.0099C5 11.4576 4.55228 11.0099 4 11.0099C3.44772 11.0099 3 11.4576 3 12.0099C3 12.5622 3.44772 13.0099 4 13.0099Z" fill="#212B36"/>
<path d="M4 18.0099C4.55228 18.0099 5 17.5622 5 17.0099C5 16.4576 4.55228 16.0099 4 16.0099C3.44772 16.0099 3 16.4576 3 17.0099C3 17.5622 3.44772 18.0099 4 18.0099Z" fill="#212B36"/>
<path d="M20.06 11.0099H7.94C7.42085 11.0099 7 11.4307 7 11.9499V12.0699C7 12.589 7.42085 13.0099 7.94 13.0099H20.06C20.5791 13.0099 21 12.589 21 12.0699V11.9499C21 11.4307 20.5791 11.0099 20.06 11.0099Z" fill="#212B36"/>
<path d="M20.06 16.0099H7.94C7.42085 16.0099 7 16.4307 7 16.9499V17.0699C7 17.589 7.42085 18.0099 7.94 18.0099H20.06C20.5791 18.0099 21 17.589 21 17.0699V16.9499C21 16.4307 20.5791 16.0099 20.06 16.0099Z" fill="#212B36"/>
<path d="M20.06 6.00989H7.94C7.42085 6.00989 7 6.43074 7 6.94989V7.06989C7 7.58904 7.42085 8.00989 7.94 8.00989H20.06C20.5791 8.00989 21 7.58904 21 7.06989V6.94989C21 6.43074 20.5791 6.00989 20.06 6.00989Z" fill="#212B36"/>
</svg>
