<svg width="24" height="25" viewBox="0 0 24 25" fill="none" xmlns="http://www.w3.org/2000/svg">
<path d="M17.6503 6.35988C16.0203 4.72988 13.7103 3.78988 11.1703 4.04988C7.50027 4.41988 4.48027 7.39988 4.07027 11.0699C3.52027 15.9199 7.27027 20.0099 12.0003 20.0099C15.1903 20.0099 17.9303 18.1399 19.2103 15.4499C19.5303 14.7799 19.0503 14.0099 18.3103 14.0099C17.9403 14.0099 17.5903 14.2099 17.4303 14.5399C16.3003 16.9699 13.5903 18.5099 10.6303 17.8499C8.41026 17.3599 6.62027 15.5499 6.15027 13.3299C5.31027 9.44988 8.26027 6.00988 12.0003 6.00988C13.6603 6.00988 15.1403 6.69988 16.2203 7.78988L14.7103 9.29988C14.0803 9.92988 14.5203 11.0099 15.4103 11.0099H19.0003C19.5503 11.0099 20.0003 10.5599 20.0003 10.0099V6.41988C20.0003 5.52988 18.9203 5.07988 18.2903 5.70988L17.6503 6.35988Z" fill="#212B36"/>
</svg>
