<svg width="24" height="25" viewBox="0 0 24 25" fill="none" xmlns="http://www.w3.org/2000/svg">
<path d="M17.5598 21.0099C17.3999 21.0106 17.2421 20.9728 17.0998 20.8999L11.9998 18.2299L6.89979 20.8999C6.56192 21.0776 6.15238 21.0474 5.84422 20.8221C5.53605 20.5968 5.38302 20.2158 5.44979 19.8399L6.44979 14.2099L2.32979 10.2099C2.06784 9.94851 1.97167 9.56382 2.07979 9.20991C2.19803 8.84733 2.51221 8.58358 2.88979 8.52991L8.58979 7.69991L11.0998 2.56991C11.2669 2.22492 11.6165 2.0058 11.9998 2.0058C12.3831 2.0058 12.7327 2.22492 12.8998 2.56991L15.4398 7.68991L21.1398 8.51991C21.5174 8.57358 21.8315 8.83733 21.9498 9.19991C22.0579 9.55382 21.9617 9.93851 21.6998 10.1999L17.5798 14.1999L18.5798 19.8299C18.6527 20.2127 18.4966 20.603 18.1798 20.8299C17.9987 20.9568 17.7807 21.0201 17.5598 21.0099V21.0099Z" fill="#212B36"/>
</svg>
