<svg width="24" height="25" viewBox="0 0 24 25" fill="none" xmlns="http://www.w3.org/2000/svg">
<path d="M21.0003 12.0099C21.0003 11.4576 20.5526 11.0099 20.0003 11.0099C19.448 11.0099 19.0003 11.4576 19.0003 12.0099V14.3099L14.7603 9.30988C14.4443 8.9405 13.9084 8.85189 13.4903 9.09988L9.22029 11.7099L4.77029 6.36988C4.54164 6.09478 4.18359 5.96257 3.83103 6.02304C3.47847 6.08351 3.18494 6.32747 3.06103 6.66304C2.93712 6.9986 3.00164 7.37478 3.23029 7.64988L8.23029 13.6499C8.5448 14.028 9.08757 14.1213 9.51029 13.8699L13.7903 11.2999L17.7903 16.0099H15.0003C14.448 16.0099 14.0003 16.4576 14.0003 17.0099C14.0003 17.5622 14.448 18.0099 15.0003 18.0099H20.0003C20.1234 18.0069 20.245 17.9832 20.3603 17.9399L20.5003 17.8599C20.5524 17.8336 20.6026 17.8035 20.6503 17.7699C20.7051 17.7204 20.7522 17.6631 20.7903 17.5999C20.8238 17.5555 20.8539 17.5087 20.8803 17.4599C20.9048 17.4058 20.9216 17.3486 20.9303 17.2899C20.9708 17.2017 20.9946 17.1068 21.0003 17.0099V12.0099Z" fill="#212B36"/>
</svg>
