<svg width="24" height="25" viewBox="0 0 24 25" fill="none" xmlns="http://www.w3.org/2000/svg">
<path d="M21 7.15989C20.3789 6.88024 19.6509 6.9983 19.15 7.45989L17 9.45989V8.00989C17 6.35303 15.6569 5.00989 14 5.00989H5C3.34315 5.00989 2 6.35303 2 8.00989V16.0099C2 17.6667 3.34315 19.0099 5 19.0099H14C15.6569 19.0099 17 17.6667 17 16.0099V14.5599L19.16 16.5599C19.478 16.8477 19.8911 17.008 20.32 17.0099C20.558 17.0093 20.7932 16.9582 21.01 16.8599C21.6133 16.6158 22.0087 16.0307 22.01 15.3799V8.63989C22.007 7.98663 21.6072 7.40077 21 7.15989Z" fill="#212B36"/>
</svg>
