<svg width="24" height="25" viewBox="0 0 24 25" fill="none" xmlns="http://www.w3.org/2000/svg">
<path d="M12 2.00989C12.55 2.00989 13 2.45989 13 3.00989V7.00989H19.5C20.33 7.00989 21 7.67989 21 8.50989C21 9.33989 20.33 10.0099 19.5 10.0099H13V14.0099H16.5C17.33 14.0099 18 14.6799 18 15.5099C18 16.3399 17.33 17.0099 16.5 17.0099H13V21.0099C13 21.5599 12.55 22.0099 12 22.0099C11.45 22.0099 11 21.5599 11 21.0099V17.0099H7.5C6.67 17.0099 6 16.3399 6 15.5099C6 14.6799 6.67 14.0099 7.5 14.0099H11V10.0099H4.5C3.67 10.0099 3 9.33989 3 8.50989C3 7.67989 3.67 7.00989 4.5 7.00989H11V3.00989C11 2.45989 11.45 2.00989 12 2.00989Z" fill="#212B36"/>
</svg>
