<svg width="24" height="25" viewBox="0 0 24 25" fill="none" xmlns="http://www.w3.org/2000/svg">
<path d="M21 2.00989C21.55 2.00989 22 2.45989 22 3.00989V21.0099C22 21.5599 21.55 22.0099 21 22.0099C20.45 22.0099 20 21.5599 20 21.0099V3.00989C20 2.45989 20.45 2.00989 21 2.00989ZM3.5 10.0099H16.5C17.33 10.0099 18 9.33989 18 8.50989C18 7.67989 17.33 7.00989 16.5 7.00989H3.5C2.67 7.00989 2 7.67989 2 8.50989C2 9.33989 2.67 10.0099 3.5 10.0099ZM9.5 17.0099H16.5C17.33 17.0099 18 16.3399 18 15.5099C18 14.6799 17.33 14.0099 16.5 14.0099H9.5C8.67 14.0099 8 14.6799 8 15.5099C8 16.3399 8.67 17.0099 9.5 17.0099Z" fill="#212B36"/>
</svg>
