<svg width="58" height="40" viewBox="0 0 58 40" fill="none" xmlns="http://www.w3.org/2000/svg">
<rect x="0.5" y="0.5" width="56.931" height="39" rx="3.5" fill="#006FCF" stroke="#F3F3F3"/>
<path fill-rule="evenodd" clip-rule="evenodd" d="M11.8493 28.8937V20.6592H21.1619L22.161 21.8787L23.1932 20.6592H56.9956V28.3258C56.9956 28.3258 56.1116 28.8855 55.0892 28.8937H36.3721L35.2456 27.5957V28.8937H31.5542V26.6779C31.5542 26.6779 31.05 26.9872 29.9598 26.9872H28.7033V28.8937H23.1142L22.1165 27.6481L21.1035 28.8937H11.8493ZM0.999023 14.4529L3.09428 9.86914H6.71782L7.9069 12.4368V9.86914H12.4113L13.1192 11.7249L13.8054 9.86914H34.0254V10.8021C34.0254 10.8021 35.0884 9.86914 36.8353 9.86914L43.3959 9.89066L44.5645 12.4247V9.86914H48.334L49.3715 11.3247V9.86914H53.1755V18.1037H49.3715L48.3772 16.6434V18.1037H42.839L42.282 16.8056H40.7932L40.2453 18.1037H36.4894C34.9863 18.1037 34.0254 17.1897 34.0254 17.1897V18.1037H28.3625L27.2386 16.8056V18.1037H6.18101L5.62445 16.8056H4.14033L3.5877 18.1037H0.999023V14.4529ZM1.00983 17.05L3.83588 10.8843H5.97838L8.80173 17.05H6.9213L6.40256 15.8154H3.37117L2.84973 17.05H1.00983ZM5.80547 14.4767L4.88146 12.3192L3.95476 14.4767H5.80547ZM8.99625 17.049V10.8832L11.6109 10.8924L13.1316 14.8676L14.6159 10.8832H17.2096V17.049H15.5669V12.5058L13.8257 17.049H12.3851L10.6389 12.5058V17.049H8.99625ZM18.3336 17.049V10.8832H23.6939V12.2624H19.9935V13.3171H23.6074V14.6151H19.9935V15.7104H23.6939V17.049H18.3336ZM24.6449 17.05V10.8843H28.3004C29.5116 10.8843 30.5969 11.5871 30.5969 12.8846C30.5969 13.9938 29.6819 14.7082 28.7948 14.7784L30.9562 17.05H28.9488L26.9792 14.8596H26.2876V17.05H24.6449ZM28.1653 12.2635H26.2876V13.5615H28.1896C28.5188 13.5615 28.9434 13.3221 28.9434 12.9125C28.9434 12.5941 28.6157 12.2635 28.1653 12.2635ZM32.9447 17.049H31.2675V10.8832H32.9447V17.049ZM36.9217 17.049H36.5597C34.808 17.049 33.7444 15.754 33.7444 13.9915C33.7444 12.1854 34.7961 10.8832 37.0082 10.8832H38.8238V12.3436H36.9418C36.0438 12.3436 35.4087 13.0012 35.4087 14.0067C35.4087 15.2008 36.1349 15.7023 37.1811 15.7023H37.6134L36.9217 17.049ZM37.6701 17.05L40.4962 10.8843H42.6387L45.462 17.05H43.5816L43.0628 15.8154H40.0314L39.51 17.05H37.6701ZM42.4657 14.4767L41.5417 12.3192L40.615 14.4767H42.4657ZM45.6538 17.049V10.8832H47.7423L50.4089 14.7571V10.8832H52.0516V17.049H50.0307L47.2965 13.0737V17.049H45.6538ZM12.9733 27.8391V21.6733H18.3336V23.0525H14.6332V24.1072H18.2471V25.4052H14.6332V26.5005H18.3336V27.8391H12.9733ZM39.2388 27.8391V21.6733H44.5991V23.0525H40.8987V24.1072H44.4953V25.4052H40.8987V26.5005H44.5991V27.8391H39.2388ZM18.5416 27.8391L21.1515 24.7942L18.4795 21.6733H20.549L22.1403 23.6026L23.7371 21.6733H25.7256L23.0887 24.7562L25.7034 27.8391H23.6342L22.089 25.9402L20.5814 27.8391H18.5416ZM25.8987 27.8402V21.6744H29.5271C31.016 21.6744 31.8858 22.5749 31.8858 23.7483C31.8858 25.1647 30.7768 25.8931 29.3137 25.8931H27.5846V27.8402H25.8987ZM29.4056 23.0688H27.5846V24.4886H29.4002C29.8799 24.4886 30.2161 24.1902 30.2161 23.7787C30.2161 23.3407 29.8782 23.0688 29.4056 23.0688ZM32.5989 27.8391V21.6733H36.2544C37.4656 21.6733 38.5509 22.3761 38.5509 23.6736C38.5509 24.7828 37.6359 25.4972 36.7488 25.5675L38.9102 27.8391H36.9028L34.9332 25.6486H34.2416V27.8391H32.5989ZM36.1193 23.0525H34.2416V24.3505H36.1436C36.4729 24.3505 36.8974 24.1111 36.8974 23.7015C36.8974 23.3831 36.5697 23.0525 36.1193 23.0525ZM45.3599 27.8391V26.5005H48.6474C49.1338 26.5005 49.3444 26.2538 49.3444 25.9833C49.3444 25.7241 49.1345 25.462 48.6474 25.462H47.1618C45.8705 25.462 45.1513 24.7237 45.1513 23.6153C45.1513 22.6267 45.8099 21.6733 47.7288 21.6733H50.9277L50.236 23.0606H47.4694C46.9406 23.0606 46.7778 23.321 46.7778 23.5697C46.7778 23.8253 46.9789 24.1072 47.383 24.1072H48.9392C50.3787 24.1072 51.0033 24.8734 51.0033 25.8768C51.0033 26.9555 50.3073 27.8391 48.8608 27.8391H45.3599ZM51.1481 27.8391V26.5005H54.4357C54.9221 26.5005 55.1327 26.2538 55.1327 25.9833C55.1327 25.7241 54.9228 25.462 54.4357 25.462H52.9501C51.6587 25.462 50.9396 24.7237 50.9396 23.6153C50.9396 22.6267 51.5982 21.6733 53.5171 21.6733H56.716L56.0243 23.0606H53.2577C52.7288 23.0606 52.566 23.321 52.566 23.5697C52.566 23.8253 52.7672 24.1072 53.1712 24.1072H54.7275C56.167 24.1072 56.7916 24.8734 56.7916 25.8768C56.7916 26.9555 56.0956 27.8391 54.6491 27.8391H51.1481Z" fill="white"/>
</svg>
