<?xml version="1.0" encoding="UTF-8" standalone="no"?>
<!-- Created with Inkscape (http://www.inkscape.org/) -->

<svg
   version="1.1"
   id="svg2"
   xml:space="preserve"
   width="743.26135"
   height="491.33868"
   viewBox="0 0 743.26135 491.33868"
   sodipodi:docname="DK_Logo_CMYK.ai"
   xmlns:inkscape="http://www.inkscape.org/namespaces/inkscape"
   xmlns:sodipodi="http://sodipodi.sourceforge.net/DTD/sodipodi-0.dtd"
   xmlns="http://www.w3.org/2000/svg"
   xmlns:svg="http://www.w3.org/2000/svg"><defs
     id="defs6"><clipPath
       clipPathUnits="userSpaceOnUse"
       id="clipPath16"><path
         d="M 40.068,25.193 H 521.297 V 343.312 H 40.068 Z"
         id="path14" /></clipPath></defs><sodipodi:namedview
     id="namedview4"
     pagecolor="#ffffff"
     bordercolor="#666666"
     borderopacity="1.0"
     inkscape:pageshadow="2"
     inkscape:pageopacity="0.0"
     inkscape:pagecheckerboard="0" /><g
     id="g8"
     inkscape:groupmode="layer"
     inkscape:label="DK_Logo_CMYK"
     transform="matrix(1.3333333,0,0,-1.3333333,0,491.33867)"><g
       id="g10"><g
         id="g12"
         clip-path="url(#clipPath16)"><g
           id="g18"
           transform="translate(185.0532,326.3125)"><path
             d="m 0,0 c -78.338,0 -142.073,-63.725 -142.073,-142.053 0,-78.336 63.735,-142.067 142.073,-142.067 h 191.332 c 78.328,0 142.054,63.731 142.054,142.067 C 333.386,-63.725 269.66,0 191.332,0 Z"
             style="fill:#ffffff;fill-opacity:1;fill-rule:nonzero;stroke:none"
             id="path20" /></g><g
           id="g22"
           transform="translate(185.0532,326.3125)"><path
             d="m 0,0 c -78.338,0 -142.073,-63.725 -142.073,-142.053 0,-78.336 63.735,-142.067 142.073,-142.067 h 191.332 c 78.328,0 142.054,63.731 142.054,142.067 C 333.386,-63.725 269.66,0 191.332,0 Z M 191.332,-287.005 H 0 c -79.93,0 -144.958,65.025 -144.958,144.952 0,79.919 65.028,144.939 144.958,144.939 h 191.332 c 79.92,0 144.939,-65.02 144.939,-144.939 0,-79.927 -65.019,-144.952 -144.939,-144.952"
             style="fill:#ffffff;fill-opacity:1;fill-rule:nonzero;stroke:none"
             id="path24" /></g><g
           id="g26"
           transform="translate(409.8315,192.9336)"><path
             d="m 0,0 63.624,-75.666 c 13.177,19.043 20.916,42.126 20.916,66.991 0,26.243 -8.622,50.513 -23.171,70.13 z"
             style="fill:#e41d27;fill-opacity:1;fill-rule:nonzero;stroke:none"
             id="path28" /></g><g
           id="g30"
           transform="translate(229.541,260.7758)"><path
             d="m 0,0 c 47.513,0 83.313,-12.089 86.998,-52.121 l 50.004,52.127 h 99.569 c -21.66,25.352 -53.848,41.457 -89.727,41.457 H -44.488 C -80.38,41.463 -112.574,25.358 -134.235,0 Z"
             style="fill:#e41d27;fill-opacity:1;fill-rule:nonzero;stroke:none"
             id="path32" /></g><g
           id="g34"
           transform="translate(151.2573,210.31)"><path
             d="m 0,0 -16.967,-46.65 h 68.455 c 20.237,0 26.36,8.378 30.889,24.507 C 86.859,-6.19 75.601,0 61.771,0 Z"
             style="fill:#e41d27;fill-opacity:1;fill-rule:nonzero;stroke:none"
             id="path36" /></g><g
           id="g38"
           transform="translate(366.9585,110.8984)"><path
             d="M 0,0 -52.885,66.835 C -62.668,21.266 -94.677,0.008 -154.682,0.008 h -119.587 c 21.634,-27.185 54.995,-44.647 92.363,-44.647 H 9.427 c 37.355,0 70.709,17.455 92.344,44.639 z"
             style="fill:#e41d27;fill-opacity:1;fill-rule:nonzero;stroke:none"
             id="path40" /></g></g></g></g></svg>
