<svg width="58" height="40" viewBox="0 0 58 40" fill="none" xmlns="http://www.w3.org/2000/svg">
<rect x="0.5" y="0.5" width="56.931" height="39" rx="3.5" fill="white" stroke="#F3F3F3"/>
<path fill-rule="evenodd" clip-rule="evenodd" d="M19.0459 20.3243C19.0459 22.7664 20.9612 24.6599 23.426 24.6599C24.1227 24.6599 24.7197 24.5229 25.4555 24.1759V22.2682C24.8085 22.9166 24.2352 23.1782 23.5014 23.1782C21.8711 23.1782 20.714 21.9948 20.714 20.3121C20.714 18.7172 21.9076 17.4589 23.426 17.4589C24.1981 17.4589 24.7825 17.7346 25.4555 18.3936V16.4869C24.745 16.1261 24.1609 15.9766 23.4642 15.9766C21.0119 15.9766 19.0459 17.9086 19.0459 20.3243ZM14.892 18.3065C14.892 18.7556 15.177 18.9928 16.1484 19.3526C17.9897 20.027 18.5353 20.6244 18.5353 21.9446C18.5353 23.5527 17.3552 24.6727 15.6733 24.6727C14.4415 24.6727 13.5457 24.187 12.8 23.0908L13.8458 22.0826C14.2184 22.8042 14.8403 23.191 15.6124 23.191C16.3347 23.191 16.8691 22.6922 16.8691 22.0191C16.8691 21.6701 16.7072 21.3707 16.3837 21.1591C16.2212 21.059 15.8987 20.91 15.2648 20.686C13.7445 20.1384 13.2232 19.5523 13.2232 18.4076C13.2232 17.0479 14.3431 16.0272 15.8115 16.0272C16.7213 16.0272 17.5539 16.3385 18.25 16.9481L17.4029 18.0584C16.9813 17.5853 16.5825 17.3856 16.0978 17.3856C15.4001 17.3856 14.892 17.7833 14.892 18.3065ZM10.5717 24.4729H12.1904V16.1644H10.5717V24.4729ZM7.26304 22.4058C6.75456 22.8657 6.09379 23.0663 5.04797 23.0663H4.61355V17.572H5.04797C6.09379 17.572 6.72859 17.7595 7.26304 18.2442C7.82282 18.743 8.15945 19.5165 8.15945 20.3123C8.15945 21.1099 7.82282 21.9069 7.26304 22.4058ZM5.3721 16.1645H2.99609V24.4726H5.3596C6.61638 24.4726 7.52369 24.176 8.3204 23.5135C9.26715 22.7293 9.82692 21.5471 9.82692 20.3245C9.82692 17.8724 7.99723 16.1645 5.3721 16.1645ZM36.077 16.1644L38.2898 21.7451L40.5315 16.1644H42.2862L38.7011 24.686H37.8301L34.3085 16.1644H36.077ZM43.0181 24.4727H47.6085V23.0662H44.6356V20.8234H47.4992V19.4162H44.6356V17.5721H47.6085V16.1643H43.0181V24.4727ZM50.2974 19.9894H50.7703C51.8042 19.9894 52.3521 19.5397 52.3521 18.7045C52.3521 17.8959 51.8042 17.4732 50.7959 17.4732H50.2974V19.9894ZM51.0809 16.1642C52.9475 16.1642 54.0177 17.0617 54.0177 18.6172C54.0177 19.8892 53.3463 20.7245 52.1271 20.9726L54.7397 24.4726H52.749L50.5086 21.135H50.2974V24.4726H48.6805V16.1642H51.0809Z" fill="#1D1D1B"/>
<path fill-rule="evenodd" clip-rule="evenodd" d="M34.1177 22.7273C35.4315 20.6705 34.8315 17.9381 32.7774 16.6229C30.7233 15.3077 27.9937 15.9081 26.6798 17.9649C25.3664 20.0211 25.9666 22.7544 28.0207 24.0696C30.0748 25.3848 32.8043 24.7835 34.1177 22.7273Z" fill="url(#paint0_linear_1620_42489)"/>
<defs>
<linearGradient id="paint0_linear_1620_42489" x1="36.4961" y1="19.0039" x2="29.0531" y2="14.2496" gradientUnits="userSpaceOnUse">
<stop stop-color="#F6A000"/>
<stop offset="0.623918" stop-color="#E47E02"/>
<stop offset="1" stop-color="#D36002"/>
</linearGradient>
</defs>
</svg>
