<svg width="58" height="40" viewBox="0 0 58 40" fill="none" xmlns="http://www.w3.org/2000/svg">
<rect x="0.5" y="0.5" width="56.931" height="39" rx="3.5" fill="white" stroke="#F3F3F3"/>
<path d="M34.2695 28.977H23.9307V10.5127H34.2695V28.977Z" fill="#FF5F00"/>
<path d="M24.5932 19.7425C24.5932 15.9969 26.3579 12.6605 29.1061 10.5103C27.0964 8.93806 24.5601 7.99961 21.8037 7.99961C15.278 7.99961 9.98828 13.257 9.98828 19.7425C9.98828 26.228 15.278 31.4854 21.8037 31.4854C24.5601 31.4854 27.0964 30.5469 29.1061 28.9746C26.3579 26.8245 24.5932 23.488 24.5932 19.7425Z" fill="#EB001B"/>
<path d="M48.2133 19.7425C48.2133 26.228 42.9235 31.4854 36.3979 31.4854C33.6415 31.4854 31.1051 30.5469 29.0947 28.9746C31.8437 26.8245 33.6084 23.488 33.6084 19.7425C33.6084 15.9969 31.8437 12.6605 29.0947 10.5103C31.1051 8.93806 33.6415 7.99961 36.3979 7.99961C42.9235 7.99961 48.2133 13.257 48.2133 19.7425Z" fill="#F79E1B"/>
</svg>
