<svg width="40" height="40" viewBox="0 0 40 40" fill="none" xmlns="http://www.w3.org/2000/svg">
<g clip-path="url(#clip0_1527_43612)">
<path d="M20 40C31.0457 40 40 31.0457 40 20C40 8.9543 31.0457 0 20 0C8.9543 0 0 8.9543 0 20C0 31.0457 8.9543 40 20 40Z" fill="#1A1F71"/>
<path d="M17.9141 16.1328L16.2109 23.9687H18.2734L19.9219 16.1328H17.9141Z" fill="white"/>
<path d="M14.9219 16.1328L12.8047 21.4453L11.9297 16.9062C11.8281 16.3906 11.4141 16.1328 11 16.1328H7.55469L7.5 16.3359C8.21875 16.4922 8.99219 16.75 9.50781 17.0078C9.82031 17.1641 9.86719 17.3203 9.96875 17.6797L11.5703 23.9141H13.7344L17.0312 16.0781H14.9219V16.1328Z" fill="white"/>
<path d="M30.9531 16.1328H29.2031C28.7891 16.1328 28.4844 16.3359 28.3281 16.7031L25.2891 23.9687H27.4062L27.8203 22.7813H30.3984L30.6562 23.9687H32.5L30.9531 16.1328ZM28.4766 21.1875L29.5625 18.25L30.1797 21.1875H28.4766Z" fill="white"/>
<path d="M22.6016 18.2969C22.6016 18.0391 22.8594 17.7266 23.4766 17.625C23.7891 17.5703 24.5625 17.5703 25.4844 17.9844L25.8437 16.3359C25.3828 16.1797 24.7109 15.9766 23.9375 15.9766C21.9297 15.9766 20.5391 17.0625 20.5391 18.5547C20.5391 19.6875 21.5703 20.3047 22.2891 20.6719C23.0625 21.0313 23.3203 21.2891 23.3203 21.6484C23.3203 22.1641 22.7031 22.4219 22.0859 22.4219C21.0547 22.4219 20.4844 22.1641 20.0234 21.9062L19.6641 23.6094C20.125 23.8125 21.0078 24.0234 21.9297 24.0234C24.0469 24.0234 25.4375 22.9922 25.4375 21.3438C25.4375 19.3828 22.5547 19.2266 22.6016 18.2969Z" fill="white"/>
</g>
<defs>
<clipPath id="clip0_1527_43612">
<rect width="40" height="40" fill="white"/>
</clipPath>
</defs>
</svg>
